<svg width="1440" height="3750" viewBox="0 0 1440 3750" fill="none" xmlns="http://www.w3.org/2000/svg">
<path d="M720 3173.31L302 3173.31C274.938 3173.31 253 3195.25 253 3222.31L253 3438.31" stroke="#9673FF" stroke-width="32"/>
<path d="M721 3333.31L1139 3333.31C1166.06 3333.31 1188 3355.25 1188 3382.31L1188 3577.31" stroke="#A2FF8A" stroke-width="32"/>
<path d="M362.802 11.3134L707.5 356.012" stroke="#A2FF8A" stroke-width="32"/>
<path d="M719.732 9.31348C719.734 137.574 719.974 202.093 719.998 324.445C720 336.102 715.332 347.32 707.038 355.511C698.733 363.714 687.53 368.313 675.858 368.313L-3.13848e-05 368.313" stroke="#9673FF" stroke-width="32"/>
<path d="M1174.2 840.317L732.5 398.619" stroke="#A2FF8A" stroke-width="32"/>
<path d="M720.268 3749.32C720.267 3673.29 720.017 660.239 720.001 415.522C720 406.273 724.944 398.382 732.962 393.772L734.353 392.973C741.935 388.615 750.526 386.321 759.271 386.321L1440 386.321" stroke="white" stroke-width="32"/>
</svg>
