<svg width="288" height="96" viewBox="0 0 288 96" fill="none" xmlns="http://www.w3.org/2000/svg">
<mask id="mask0_167_2779" style="mask-type:luminance" maskUnits="userSpaceOnUse" x="65" y="21" width="159" height="54">
<path d="M223.201 21.1665H65.4336V74.8352H223.201V21.1665Z" fill="white"/>
</mask>
<g mask="url(#mask0_167_2779)">
<path d="M90.4655 32.6284H100.313V63.1311H90.4655V59.4391C87.7971 63.5422 83.968 64.1565 81.4436 64.1565C77.068 64.1565 73.3743 63.0634 70.0222 59.5067C66.8021 56.0871 65.5703 52.1209 65.5703 48.0854C65.5703 42.955 67.4788 38.5795 70.2894 35.767C72.9579 33.1004 76.6498 31.603 80.8901 31.603C83.4926 31.603 87.6566 32.219 90.4655 36.0481V32.6284ZM77.9494 42.2715C77.2198 42.9955 76.644 43.8593 76.2564 44.8112C75.8688 45.7631 75.6776 46.7835 75.6939 47.8112C75.6939 50.5473 76.8563 52.3222 77.7464 53.2833C79.1135 54.7199 81.2337 55.6759 83.5602 55.6759C85.4795 55.6709 87.3194 54.9092 88.6802 53.5557C89.9796 52.3256 91.0744 50.4103 91.0744 47.8112C91.0744 45.6235 90.2538 43.571 88.819 42.2038C87.32 40.7725 85.1304 40.0784 83.352 40.0784C81.3346 40.0796 79.3968 40.8661 77.9494 42.2715Z" fill="white"/>
<path d="M117.831 74.9051H107.977V32.6271H117.831V36.2601C121.046 32.0961 125.012 31.6104 127.339 31.6104C132.803 31.6017 136.222 34.0046 138.131 35.9131C140.867 38.6492 142.712 42.8219 142.712 47.8134C142.712 53.0808 140.867 57.0469 137.855 60.0553C134.843 63.0638 131.563 64.1586 127.528 64.1586C121.441 64.1586 118.843 61.0825 117.812 59.6477L117.831 74.9051ZM119.466 42.3325C117.996 43.8348 117.162 45.8456 117.137 47.9469C117.152 49.9611 117.935 51.8937 119.327 53.3497C120.822 54.8315 122.839 55.6664 124.945 55.6746C126.904 55.6536 128.783 54.8967 130.211 53.5544C131.784 52.0502 132.605 49.7253 132.605 47.7422C132.616 46.7331 132.425 45.732 132.043 44.7975C131.663 43.8631 131.099 43.0141 130.385 42.3002C129.672 41.5863 128.824 41.0221 127.889 40.6404C126.955 40.2585 125.953 40.0671 124.945 40.0771C123.926 40.0659 122.917 40.26 121.975 40.6475C121.034 41.0349 120.181 41.6081 119.466 42.3325Z" fill="white"/>
<path d="M158.723 32.6274V50.0674L171.718 32.6274H180.883V63.13H171.033V45.4176L158.039 63.13H148.875V32.6274H158.723Z" fill="white"/>
<path d="M198.389 63.1297H188.539V32.627H198.389V36.2601C201.602 32.0961 205.569 31.6104 207.895 31.6104C213.365 31.6104 216.785 34.0046 218.7 35.9184C221.436 38.6544 223.283 42.827 223.283 47.8185C223.283 53.0859 221.436 57.052 218.424 60.0606C215.412 63.069 212.133 64.1637 208.098 64.1637C202.011 64.1637 199.412 61.0876 198.381 59.6528L198.389 63.1297ZM200.03 42.3325C198.561 43.8326 197.729 45.841 197.703 47.9399C197.717 49.9568 198.5 51.8923 199.895 53.3497C201.387 54.8287 203.401 55.6633 205.502 55.6744C207.462 55.6534 209.341 54.8967 210.768 53.5544C212.341 52.0501 213.162 49.7252 213.162 47.7422C213.173 46.7329 212.982 45.7316 212.6 44.797C212.22 43.8625 211.656 43.0135 210.942 42.2996C210.229 41.5857 209.379 41.0213 208.446 40.6397C207.511 40.2581 206.51 40.0669 205.501 40.0771C204.483 40.0669 203.475 40.2613 202.536 40.6487C201.596 41.0363 200.744 41.6089 200.03 42.3325Z" fill="white"/>
<path d="M198.389 65.0557H188.539V74.9051H198.389V65.0557Z" fill="#E4231E"/>
</g>
</svg>
