<svg width="300" height="100" viewBox="0 0 300 100" fill="none" xmlns="http://www.w3.org/2000/svg">
<path fill-rule="evenodd" clip-rule="evenodd" d="M266.234 27.5073L266.249 62.4689C264.465 62.4734 261.509 62.5739 259.82 62.4471C259.435 62.0319 259.844 62.0128 259.524 61.5516C258.884 61.619 257.893 62.2889 257.209 62.495C253.305 63.671 250.125 63.3961 246.554 61.6375C243.409 59.945 241.198 57.3523 240.085 53.9441C239.048 50.6708 239.336 47.1213 240.889 44.058C242.513 40.8666 245.348 38.4593 248.761 37.3743C252.744 36.089 256.055 36.7946 259.655 38.6341L259.658 27.5049L266.234 27.5073ZM259.519 48.9115C258.934 45.2226 255.466 42.7075 251.778 43.2961C248.094 43.8839 245.583 47.343 246.168 51.026C246.751 54.7089 250.208 57.223 253.894 56.644C257.583 56.0639 260.104 52.6006 259.519 48.9115Z" fill="#FCFCFC"/>
<path fill-rule="evenodd" clip-rule="evenodd" d="M45.908 36.8136C48.5547 36.6028 50.9222 37.0107 53.2925 38.251C56.4824 39.8855 58.8791 42.7356 59.9415 46.1578C60.9465 49.4528 60.6135 53.0106 59.0144 56.062C57.3209 59.2275 54.4431 61.5946 51.0094 62.6456C47.1916 63.8081 43.7588 63.1615 40.3154 61.3291L40.3026 63.2098L40.3014 72.4967L33.751 72.4905L33.75 37.4682C34.973 37.4757 39.1922 37.3662 40.1396 37.5021C40.4775 37.8942 40.157 38.0373 40.401 38.3807C40.6265 38.3733 41.0144 38.1997 41.228 38.1081C42.8006 37.435 44.2105 36.9975 45.908 36.8136ZM53.8252 48.9728C53.2699 45.2563 49.79 42.7052 46.0771 43.2931C42.4105 43.8736 39.8971 47.3001 40.4455 50.9707C40.9939 54.6412 44.399 57.184 48.0754 56.6681C51.798 56.146 54.3805 52.6896 53.8252 48.9728Z" fill="#FCFCFC"/>
<path fill-rule="evenodd" clip-rule="evenodd" d="M78.2235 36.8154C80.6862 36.5761 83.1671 37.0271 85.3881 38.1178C88.5702 39.68 91.0023 42.4408 92.1503 45.794C93.24 49.0524 93.0142 52.6078 91.5211 55.7021C89.9648 58.8784 87.2148 61.31 83.8713 62.4663C79.7051 63.8846 76.4327 63.2155 72.6318 61.3438L72.6343 72.5003L66.0598 72.4973L66.0586 37.4698C68.0601 37.4633 70.2922 37.4201 72.3002 37.5C72.7465 37.5176 72.5101 38.069 72.7462 38.3973C73.2976 38.3153 74.2512 37.8684 74.8035 37.642C76.0825 37.1176 76.8647 36.9459 78.2235 36.8154ZM86.1317 48.8716C85.5263 45.199 82.065 42.7065 78.3887 43.296C74.6902 43.8891 72.1787 47.3749 72.7877 51.0696C73.3966 54.7643 76.8941 57.2603 80.5873 56.6359C84.2586 56.0151 86.7371 52.5444 86.1317 48.8716Z" fill="#FCFCFC"/>
<path d="M150.592 37.4642L157.456 37.4698C157.774 38.7243 158.575 40.9197 159.011 42.2332L162.074 51.4445C162.494 50.5142 163.295 47.8211 163.644 46.7425L166.657 37.4693L173.547 37.474C172.85 40.0756 171.479 43.8542 170.611 46.4877C169.026 51.4247 166.726 57.6252 165.439 62.4756L158.816 62.4832L154.024 48.0938C152.369 52.653 150.879 57.8006 149.32 62.4615C147.151 62.4928 144.927 62.4721 142.754 62.4771C140.016 54.2268 137.16 45.763 134.559 37.4887C136.561 37.3878 139.355 37.4735 141.421 37.4713C142.621 41.507 144.59 47.498 146.042 51.4073C147.565 47.4452 149.21 41.6776 150.592 37.4642Z" fill="#FCFCFC"/>
<path fill-rule="evenodd" clip-rule="evenodd" d="M187.948 36.7659C195.267 35.925 201.876 41.1923 202.687 48.5128C203.497 55.8334 198.201 62.418 190.875 63.1979C183.591 63.9729 177.052 58.7159 176.246 51.4384C175.441 44.161 180.672 37.6018 187.948 36.7659ZM196.151 48.9095C195.562 45.2083 192.075 42.6913 188.376 43.2988C184.705 43.9016 182.21 47.3562 182.793 51.0297C183.377 54.7032 186.818 57.2154 190.497 56.6517C194.202 56.0838 196.738 52.6108 196.151 48.9095Z" fill="#FCFCFC"/>
<path d="M108.382 37.1883C110.212 37.0002 111.701 37.1682 113.485 37.5239C112.937 39.3688 112.206 41.9691 111.803 43.8249C110.318 43.5051 108.793 43.5169 107.371 44.1008C105.725 44.7759 104.419 46.0821 103.743 47.7272C103.058 49.3872 103.062 51.2516 103.755 52.9083C105.931 58.1098 113.2 58.4712 115.947 53.5439C116.202 53.0852 116.401 52.5591 116.597 52.0699C118.629 52.6756 120.862 53.2164 122.925 53.7554C122.492 55.2816 121.9 56.4513 121.052 57.7784C120.992 57.8686 120.931 57.9569 120.866 58.0436C118.732 60.9509 115.519 62.8787 111.949 63.3928C108.419 63.9132 104.828 63.0111 101.964 60.8847C99.1544 58.7997 97.2909 55.6826 96.785 52.2218C96.2795 48.7274 97.1895 45.1757 99.313 42.3546C101.557 39.3621 104.725 37.7163 108.382 37.1883Z" fill="#FCFCFC"/>
<path d="M227.333 27.5071L233.919 27.5L233.928 62.4862L227.328 62.4897L227.333 27.5071Z" fill="#FCFCFC"/>
<path d="M220.529 36.8124L221.769 36.7422C221.794 38.8994 221.774 41.0879 221.773 43.2477C219.954 43.3047 218.252 43.9117 216.951 45.2109C214.506 47.6513 214.944 51.3992 214.946 54.5629L214.953 62.4629L208.797 62.4739C208.591 62.4652 208.652 62.4689 208.464 62.3199C208.348 61.8374 208.412 56.6519 208.412 55.7261L208.411 37.4798C209.969 37.4719 213.416 37.3528 214.797 37.5339C215.114 37.9762 214.752 38.0023 215.048 38.4632C215.549 38.3603 216.554 37.8918 217.063 37.6711C218.346 37.1151 219.156 36.9772 220.529 36.8124Z" fill="#FCFCFC"/>
<path d="M124.098 36.9242C126.433 36.5212 128.649 38.0982 129.033 40.4357C129.415 42.7732 127.819 44.9747 125.478 45.3382C123.164 45.6972 120.994 44.1246 120.615 41.8148C120.237 39.5052 121.791 37.3222 124.098 36.9242Z" fill="#5BC0C1"/>
</svg>
