<svg width="125" height="32" viewBox="0 0 125 32" fill="none" xmlns="http://www.w3.org/2000/svg">
<g clip-path="url(#clip0_157_9894)">
<path d="M105.719 23.7181C105.094 23.7181 104.562 23.1848 104.562 22.5574V8.28285C104.562 7.6554 105.062 7.12207 105.719 7.12207C106.344 7.12207 106.875 7.62403 106.875 8.28285V22.5574C106.875 23.1848 106.344 23.7181 105.719 23.7181Z" fill="white"/>
<path d="M66.375 20.4233C65.9063 20.0468 65.25 20.1095 64.8438 20.5801C63.8125 21.8664 61.25 21.5527 60.5938 21.2703C59.625 20.8938 59.1563 20.0782 59.1563 18.886V11.0742H64.25C64.875 11.0742 65.4063 10.5723 65.4063 9.91345C65.4063 9.286 64.9063 8.75267 64.25 8.75267H59.1563V2.91738C59.1563 2.3213 58.6875 1.81934 58.0625 1.81934C57.4688 1.81934 57 2.28992 57 2.91738V18.886C57 20.9566 58 22.5566 59.7813 23.2782C60.3438 23.4978 61.2188 23.686 62.1875 23.686C63.7188 23.686 65.4688 23.2468 66.5313 21.9291C66.9063 21.4585 66.8438 20.7997 66.375 20.4233Z" fill="white"/>
<path d="M48.6875 23.7802C48.3438 23.7802 47.9687 23.7488 47.625 23.7174C43.875 23.2468 41.625 21.49 41.625 19.0743C41.625 18.4468 42.125 17.9135 42.7812 17.9135C43.4062 17.9135 43.9375 18.4468 43.9375 19.0743C43.9375 20.2037 45.5 21.1135 47.9375 21.4272C50.375 21.7409 52.0938 20.5174 52.3438 19.5762C52.5 19.0115 52.4375 18.5096 52.1875 18.1017C51.9063 17.6625 51.4375 17.3802 50.7188 17.2233C45.8125 16.3449 42.5625 15.5292 42.0938 12.4233C41.9375 11.2939 42.25 10.1645 43 9.28604C44.0625 8.03114 45.9063 7.30957 48.0625 7.30957C52 7.30957 54.5625 9.06643 54.5625 11.8272C54.5625 12.4547 54.0312 12.988 53.4062 12.988C52.7812 12.988 52.25 12.4547 52.25 11.8272C52.25 10.1958 50 9.63114 48.0625 9.63114C46.625 9.63114 45.375 10.0704 44.75 10.7919C44.4375 11.1684 44.2813 11.6076 44.375 12.0782C44.5625 13.239 45.5938 13.9606 51.1562 14.9331H51.1875C52.875 15.2782 53.75 16.188 54.1563 16.8468C54.75 17.788 54.9062 18.9488 54.5938 20.1409C54.0312 22.0547 51.7813 23.7802 48.6875 23.7802Z" fill="white"/>
<path d="M75.1875 23.78C70.6563 23.78 66.9688 20.0781 66.9688 15.5604C66.9688 11.0114 70.6563 7.34082 75.1875 7.34082C79.3125 7.34082 82.8438 10.4467 83.3438 14.5565C83.4063 15.0898 83.125 15.5291 82.9375 15.7487C82.6562 16.0624 82.2813 16.2506 81.9063 16.2506H69.3125C69.625 19.1996 72.1563 21.5212 75.1875 21.5212C77.2188 21.5212 79.2812 20.4545 80.1562 18.98C80.4687 18.4153 81.1875 18.2585 81.7187 18.5722C82.25 18.8859 82.4687 19.6075 82.125 20.1408C80.875 22.2742 78.0625 23.78 75.1875 23.78ZM69.5 13.8977H80.875C80.1562 11.4193 77.8438 9.63102 75.1875 9.63102C72.5 9.63102 70.2187 11.4193 69.5 13.8977Z" fill="white"/>
<path d="M93.7187 7.30969C91.4062 7.30969 89.3125 8.28224 87.8125 9.8195V8.4391C87.8125 7.81165 87.2812 7.27832 86.6562 7.27832C86.0312 7.27832 85.5 7.78028 85.5 8.4391V28.2352C85.5 28.8626 86 29.396 86.6562 29.396C87.2812 29.396 87.8125 28.8626 87.8125 28.2352V21.2391C89.3125 22.8077 91.4062 23.7489 93.7187 23.7489C98.25 23.7489 101.906 20.0469 101.906 15.5293C101.906 11.0117 98.25 7.30969 93.7187 7.30969ZM93.7187 21.4587C90.4687 21.4587 87.8125 18.792 87.8125 15.5293C87.8125 12.2666 90.4687 9.59989 93.7187 9.59989C96.9687 9.59989 99.625 12.2666 99.625 15.5293C99.625 18.792 96.9687 21.4587 93.7187 21.4587Z" fill="white"/>
<path d="M122.125 23.6552C121 23.6552 119.875 23.1532 118.844 22.1807C118.062 21.4277 113.063 16.3767 112.875 16.1571C112.656 15.9375 112.531 15.6552 112.531 15.3415C112.531 15.0277 112.656 14.7454 112.875 14.5258L119.75 7.78067C120.219 7.34145 120.937 7.34145 121.375 7.81204C121.812 8.25126 121.812 9.0042 121.344 9.44342L115.312 15.3415C116.781 16.8473 119.844 19.9218 120.406 20.4866C121.031 21.0826 121.625 21.365 122.187 21.3336C122.344 21.3336 122.719 21.3336 123.031 21.3336C123.656 21.3336 124.187 21.8669 124.187 22.4944C124.187 23.1218 123.656 23.6238 123.031 23.6552C122.719 23.6552 122.406 23.6552 122.25 23.6552C122.219 23.6552 122.156 23.6552 122.125 23.6552Z" fill="white"/>
<path d="M111 23.6864C110.375 23.6864 109.844 23.1844 109.844 22.5256V2.88637C109.844 2.25892 110.375 1.72559 111 1.72559C111.625 1.72559 112.156 2.22755 112.156 2.88637V22.5256C112.156 23.1844 111.625 23.6864 111 23.6864Z" fill="white"/>
<path d="M105.75 4.76836C106.562 4.76836 107.219 4.10953 107.219 3.29385C107.219 2.47816 106.562 1.81934 105.75 1.81934C104.937 1.81934 104.281 2.47816 104.281 3.29385C104.281 4.10953 104.937 4.76836 105.75 4.76836Z" fill="white"/>
<path d="M16.4375 0.313477C19.2499 0.313477 21.875 1.41132 23.875 3.3877L29 8.56445C31 10.5409 32.0625 13.1765 32 16C31.9999 18.792 30.906 21.4582 28.9375 23.4346L23.6875 28.7061C21.7188 30.6196 19.1249 31.6543 16.4062 31.6543C13.625 31.6543 10.9688 30.5565 9 28.5801L3.875 23.4346C1.90646 21.4582 0.812564 18.8233 0.8125 16C0.8125 13.1765 1.90625 10.5409 3.90625 8.56445L9.03125 3.3877C11 1.41132 13.6251 0.313477 16.4375 0.313477ZM16.4375 5.39551C14.9376 5.39551 13.5625 6.02268 12.5938 6.99512L7.46875 12.1406C6.46885 13.1445 5.87511 14.4933 5.875 15.999C5.875 17.5049 6.5 18.8858 7.46875 19.8584C8.46874 20.8309 9.81254 21.458 11.3125 21.458C12.8125 21.458 14.1875 20.8309 15.1562 19.8584L20.2812 14.6816C20.625 14.3679 21.0625 14.1484 21.5938 14.1484C22.125 14.1484 22.5625 14.3366 22.9062 14.6816C23.2187 15.0266 23.4374 15.4972 23.4375 15.999C23.4375 16.5324 23.25 16.9723 22.9062 17.3174L17.7812 22.4619C17.4375 22.7756 16.9688 22.9951 16.4688 22.9951C15.9375 22.9951 15.5 22.807 15.1562 22.4619L12.625 25.0029C13.625 26.0069 14.9688 26.6035 16.4688 26.6035C17.9062 26.6035 19.25 26.0075 20.2188 25.0664L25.4375 19.8896C26.4374 18.8858 27.0311 17.537 27.0312 16.0312C27.0312 14.5254 26.4062 13.1444 25.4375 12.1719C24.4375 11.168 23.0937 10.5723 21.5938 10.5723C20.0938 10.5723 18.7187 11.1994 17.75 12.1719L12.625 17.3174C12.2813 17.631 11.8124 17.8506 11.3125 17.8506C10.7813 17.8506 10.3437 17.6624 10 17.3174C9.6875 16.9723 9.46875 16.501 9.46875 15.999C9.46885 15.4659 9.65634 15.0267 10 14.6816L15.125 9.53711C15.4688 9.22338 15.9062 9.00293 16.4375 9.00293C16.9688 9.00293 17.4062 9.19201 17.75 9.53711L20.2812 6.99512C19.2813 5.99131 17.9374 5.39551 16.4375 5.39551Z" fill="white"/>
</g>
<defs>
<clipPath id="clip0_157_9894">
<rect width="125" height="32" fill="white"/>
</clipPath>
</defs>
</svg>
