<svg width="36" height="36" viewBox="0 0 36 36" fill="none" xmlns="http://www.w3.org/2000/svg">
<path d="M25.9545 14.2861L30.7275 19.0591C31.502 19.8233 32.1177 20.7331 32.5391 21.7362C32.9605 22.7394 33.1794 23.816 33.183 24.904C33.1867 25.9921 32.975 27.0701 32.5603 28.076C32.1457 29.0819 31.5361 29.9959 30.7667 30.7653C29.9973 31.5346 29.0834 32.1442 28.0774 32.5589C27.0715 32.9736 25.9935 33.1852 24.9054 33.1816C23.8174 33.1779 22.7408 32.9591 21.7377 32.5377C20.7345 32.1163 19.8247 31.5006 19.0605 30.7261L17.4705 29.1361C17.2555 28.9286 17.084 28.6804 16.9659 28.4059C16.8479 28.1315 16.7857 27.8363 16.7829 27.5375C16.7802 27.2388 16.837 26.9425 16.95 26.6659C17.063 26.3893 17.2299 26.138 17.4411 25.9267C17.6522 25.7153 17.9034 25.5481 18.1798 25.4349C18.4563 25.3216 18.7526 25.2645 19.0513 25.267C19.3501 25.2695 19.6453 25.3314 19.9199 25.4492C20.1945 25.567 20.4428 25.7383 20.6505 25.9531L22.2435 27.5446C22.9479 28.2426 23.9001 28.6332 24.8919 28.6309C25.8836 28.6286 26.834 28.2336 27.5351 27.5322C28.2363 26.8309 28.6311 25.8803 28.6331 24.8886C28.6351 23.8969 28.2443 22.9448 27.546 22.2406L22.773 17.4676C22.2571 16.9514 21.6018 16.5971 20.8875 16.4478C20.1732 16.2986 19.4308 16.3611 18.7515 16.6276C18.5095 16.7236 18.2825 16.8216 18.0705 16.9216L17.3745 17.2471C16.4445 17.6671 15.729 17.8471 14.8185 16.9381C13.5105 15.6301 13.8495 14.4226 15.444 13.3231C17.0323 12.2301 18.9533 11.728 20.8734 11.9039C22.7934 12.0798 24.5912 12.9227 25.9545 14.2861ZM16.9395 5.27105L18.5295 6.86105C18.9395 7.28521 19.1666 7.85346 19.1618 8.44341C19.1569 9.03336 18.9205 9.5978 18.5036 10.0152C18.0866 10.4325 17.5224 10.6694 16.9324 10.6748C16.3425 10.6802 15.774 10.4537 15.3495 10.0441L13.758 8.45405C13.4122 8.09579 12.9984 7.80999 12.541 7.61333C12.0835 7.41667 11.5915 7.31308 11.0936 7.30861C10.5956 7.30415 10.1018 7.39889 9.6409 7.58731C9.17999 7.77574 8.76122 8.05407 8.40902 8.40606C8.05682 8.75806 7.77826 9.17668 7.58957 9.63748C7.40089 10.0983 7.30587 10.5921 7.31005 11.09C7.31424 11.5879 7.41755 12.08 7.61395 12.5376C7.81035 12.9952 8.09592 13.409 8.45398 13.7551L13.227 18.5281C13.7429 19.0442 14.3981 19.3986 15.1125 19.5478C15.8268 19.697 16.5691 19.6345 17.2485 19.3681C17.4905 19.2721 17.7175 19.1741 17.9295 19.0741L18.6255 18.7486C19.5555 18.3286 20.2725 18.1486 21.1815 19.0576C22.4895 20.3656 22.1505 21.5731 20.556 22.6726C18.9676 23.7655 17.0466 24.2676 15.1266 24.0917C13.2066 23.9158 11.4088 23.073 10.0455 21.7096L5.27248 16.9366C4.49797 16.1724 3.88228 15.2625 3.46085 14.2594C3.03942 13.2562 2.82059 12.1797 2.81694 11.0916C2.8133 10.0036 3.02491 8.92553 3.43961 7.9196C3.85431 6.91367 4.46389 5.99971 5.23326 5.23033C6.00264 4.46096 6.9166 3.85138 7.92253 3.43668C8.92846 3.02198 10.0065 2.81037 11.0945 2.81401C12.1826 2.81766 13.2592 3.03649 14.2623 3.45792C15.2654 3.87935 16.1753 4.49654 16.9395 5.27105Z" fill="white"/>
</svg>
