<svg width="288" height="120" viewBox="0 0 288 120" fill="none" xmlns="http://www.w3.org/2000/svg">
<mask id="mask0_167_2725" style="mask-type:luminance" maskUnits="userSpaceOnUse" x="12" y="17" width="264" height="86">
<path d="M276 17.9268H12.7891V102.075H276V17.9268Z" fill="white"/>
</mask>
<g mask="url(#mask0_167_2725)">
<path d="M48.8535 82.2735C49.7569 96.0863 49.8451 96.509 51.2191 101.515C51.2388 101.585 51.2607 101.644 51.2931 101.708C51.3127 101.746 51.2713 101.765 51.2026 101.773C41.4048 102.044 40.3392 88.2785 39.3225 80.6939C39.2676 80.2806 38.9955 79.9565 38.5987 79.8309C38.2009 79.7063 37.7928 79.8153 37.5124 80.1237C33.3457 84.6819 26.8786 93.0225 23.9053 83.0691C23.8294 82.8281 23.8066 82.5975 23.9136 82.4355C26.0997 79.2608 27.1965 77.6582 28.9651 75.4898C30.7306 73.3296 33.1713 70.5618 38.0545 65.0469C38.0628 65.0366 38.0712 65.0294 38.0794 65.019C39.8635 63.1404 39.8679 63.1361 41.7403 61.2272C42.2868 60.6819 42.7602 60.3506 43.1559 60.252C43.213 60.2387 43.2627 60.2301 43.321 60.2252C43.3263 60.2252 43.3293 60.2231 43.3387 60.2187C43.351 60.2187 43.351 60.2187 43.3606 60.2187C43.3728 60.2187 43.3728 60.2187 43.3885 60.2252C43.3999 60.2262 43.3999 60.2262 43.4113 60.2273C43.4167 60.2241 43.4196 60.2241 43.4227 60.2241C43.431 60.2231 43.4374 60.2231 43.4446 60.2219C43.4488 60.2208 43.4518 60.2208 43.455 60.2208C43.4767 60.2219 43.4935 60.2219 43.5142 60.2208C43.5163 60.2208 43.5193 60.2208 43.5246 60.2208C43.5349 60.2208 43.5349 60.2208 43.5465 60.2208C43.5568 60.2219 43.5568 60.2219 43.5661 60.2219C43.5765 60.2324 43.5765 60.2324 43.59 60.2334C43.6378 60.2355 43.6815 60.249 43.7251 60.2594C43.7394 60.2759 43.7394 60.2759 43.7499 60.2759C43.7634 60.2759 43.7634 60.2759 43.7697 60.2862C43.7841 60.2873 43.7841 60.2873 43.7937 60.2873C43.8081 60.3051 43.8081 60.3051 43.8184 60.3051C43.8309 60.306 43.8309 60.306 43.8412 60.3144C43.8516 60.3144 43.8516 60.3144 43.8609 60.3144C43.8735 60.3258 43.8735 60.3258 43.8891 60.3195C43.8952 60.3195 43.8994 60.3206 43.9017 60.3227C43.911 60.332 43.9192 60.3392 43.9285 60.3495C43.9296 60.3495 43.9317 60.3506 43.9327 60.3516C43.9485 60.3477 43.9485 60.3477 43.9617 60.3477C43.9731 60.3653 43.9731 60.3653 43.9857 60.3756C43.996 60.3746 43.996 60.3746 44.0074 60.386C44.0188 60.386 44.0188 60.386 44.0292 60.386C44.0367 60.3953 44.0397 60.3995 44.0439 60.4028C44.0521 60.4049 44.0584 60.4087 44.0667 60.4131C44.0677 60.4141 44.0718 60.4142 44.076 60.4142C44.0814 60.4193 44.0832 60.4224 44.0863 60.4235C44.0989 60.4328 44.1093 60.441 44.1228 60.4503C44.1228 60.4503 44.1228 60.4514 44.1249 60.4514C44.1343 60.4514 44.1343 60.4514 44.1457 60.4514C44.154 60.4638 44.154 60.4638 44.1705 60.4816C44.1871 60.4731 44.1871 60.4731 44.1975 60.4878C44.2132 60.5013 44.2132 60.5013 44.2225 60.5013C44.235 60.5129 44.235 60.5129 44.2453 60.5253C44.2558 60.5253 44.2558 60.5253 44.2711 60.5418C44.2786 60.5418 44.2807 60.5429 44.2848 60.545C44.2921 60.5501 44.2993 60.5543 44.3076 60.5595C44.314 60.5646 44.3148 60.569 44.319 60.5814C44.3295 60.5804 44.3295 60.5804 44.3451 60.5843C44.3616 60.6032 44.3616 60.6032 44.3719 60.6042C44.3812 60.6135 44.3812 60.6135 44.3919 60.6239C44.3991 60.6321 44.403 60.6365 44.4063 60.6375C44.4166 60.6414 44.4259 60.6468 44.4373 60.6519C44.4384 60.653 44.4427 60.6551 44.4459 60.6561C44.4469 60.6726 44.4469 60.6726 44.4717 60.6747C44.4841 60.6872 44.4934 60.6964 44.5059 60.709C44.5102 60.7122 44.5134 60.7151 44.5195 60.7236C44.5351 60.7298 44.5351 60.7298 44.5456 60.7298C44.562 60.7443 44.562 60.7443 44.5725 60.7569C44.5818 60.7662 44.5818 60.7662 44.5953 60.7838C44.5995 60.7869 44.6017 60.789 44.6046 60.7911C44.616 60.8004 44.6253 60.8066 44.6389 60.8159C44.6421 60.818 44.6452 60.8223 44.6514 60.8273C44.6607 60.8376 44.6607 60.8376 44.6752 60.8544C44.6835 60.8658 44.6835 60.8658 44.7013 60.872C44.7168 60.8888 44.7168 60.8888 44.7271 60.8981C44.7354 60.9105 44.7354 60.9105 44.7489 60.9219C44.7687 60.9312 44.7687 60.9312 44.7801 60.9395C44.7907 60.9542 44.7907 60.9542 44.8 60.9635C44.8155 60.981 44.8155 60.981 44.8321 60.9863C44.8342 60.9884 44.8362 60.9917 44.8372 60.9935C44.8465 61.0038 44.8551 61.0124 44.8644 61.0227C44.8683 61.0268 44.8716 61.0341 44.8819 61.0527C44.8996 61.0589 44.8996 61.0589 44.9089 61.0674C44.9172 61.0788 44.9205 61.0829 44.9254 61.086C44.937 61.0943 44.9473 61.1006 44.9587 61.1099C44.9608 61.1111 44.9619 61.1121 44.964 61.1132C44.9776 61.1411 44.9776 61.1411 44.9859 61.1514C45.0387 61.2075 45.0927 61.2678 45.1531 61.3218C45.18 61.3458 45.2017 61.3665 45.2256 61.3944C46.5789 62.8796 46.5946 62.8974 47.9997 64.4219C48.0048 64.427 48.0079 64.4301 48.0112 64.4343C48.0391 64.4634 48.0651 64.4966 48.0891 64.5206C48.1077 64.5381 48.1234 64.5537 48.142 64.5734C48.5833 65.0534 48.5991 65.0699 49.0579 65.5632C49.0653 65.5715 49.0714 65.5787 49.0786 65.5862C55.9581 72.5577 59.4082 76.0485 62.476 78.9969C65.5389 81.9402 68.2307 84.3413 73.6082 89.1332C73.6165 89.1416 73.6251 89.1488 73.6333 89.1549C73.6365 89.1581 73.6405 89.1612 73.6437 89.1644C74.0353 89.4956 74.1318 90.0503 73.8753 90.4947C68.7459 99.4149 56.7349 87.3126 50.623 81.4437C50.3043 81.1385 49.8555 81.0647 49.4556 81.2516C49.0569 81.4385 48.8242 81.8322 48.8535 82.2735ZM21.0907 50.1086C15.2136 51.6591 13.3671 51.684 12.906 57.4635C12.8821 57.768 12.9766 58.04 13.1842 58.2633C13.392 58.4877 13.6548 58.6017 13.96 58.5989C14.8158 58.5924 16.3176 58.6082 19.7635 58.6496C20.1426 58.6538 20.4666 58.8429 20.6566 59.172C20.8477 59.5011 20.8519 59.8772 20.6691 60.2105C18.3043 64.5038 12.4854 76.0485 18.4144 78.1941C18.4446 78.2045 18.4705 78.2148 18.4996 78.2283C18.5992 78.2751 18.6678 78.2066 18.7312 78.0372C18.7437 78.002 18.7561 77.9739 18.7728 77.9408C20.5269 74.363 21.4086 72.5538 22.9549 70.2296C24.5055 67.8989 26.7198 65.0315 31.1544 59.3018C31.17 59.2811 31.1856 59.2635 31.2031 59.2436C32.8597 57.396 32.868 57.3857 34.6314 55.4673C35.2089 54.8453 35.5464 54.3303 35.6284 53.8857C35.6358 53.87 35.6358 53.87 35.6358 53.87C35.6367 53.8482 35.6367 53.8482 35.6367 53.8482C35.6377 53.8254 35.6377 53.8254 35.6388 53.8035C35.6388 53.8035 35.6388 53.8035 35.6451 53.7882C35.6388 53.7839 35.6388 53.7839 35.6451 53.7684C35.6461 53.7435 35.6461 53.7435 35.6409 53.7484C35.644 53.7352 35.6451 53.7288 35.6461 53.7257C35.6461 53.7195 35.6472 53.7153 35.6482 53.7081C35.6482 53.6999 35.6451 53.6999 35.6377 53.6999C35.6451 53.6843 35.6451 53.6843 35.6451 53.6843C35.6451 53.6634 35.6451 53.6634 35.6409 53.6574C35.6451 53.6385 35.6451 53.6385 35.6493 53.6189C35.6419 53.6145 35.6419 53.6145 35.6388 53.6189C35.6398 53.5533 35.6337 53.5088 35.6284 53.4599C35.6191 53.4599 35.6191 53.4599 35.6202 53.438C35.6202 53.438 35.6202 53.438 35.6202 53.4162C35.6181 53.4122 35.617 53.4111 35.616 53.408C35.6118 53.4029 35.6098 53.3976 35.6067 53.3915C35.6056 53.3894 35.6056 53.384 35.6067 53.3676C35.6014 53.3622 35.6014 53.3622 35.5953 53.3664C35.5932 53.3611 35.5932 53.3612 35.5932 53.3612C35.5963 53.3447 35.5963 53.3447 35.5932 53.3394C35.5942 53.3198 35.5942 53.3196 35.5953 53.2947C35.5827 53.2947 35.5827 53.2947 35.5797 53.2896C35.5807 53.2679 35.5807 53.2679 35.5672 53.2679C35.5683 53.2575 35.5683 53.251 35.5683 53.2489C35.5672 53.2407 35.5662 53.2335 35.5651 53.2253C35.5651 53.2232 35.5651 53.2221 35.5651 53.2221C35.562 53.2139 35.5588 53.2086 35.5557 53.2014C35.5546 53.1971 35.5516 53.1971 35.5432 53.1971C35.5443 53.1857 35.5453 53.1795 35.5443 53.1764C35.5432 53.1681 35.5422 53.1618 35.5411 53.1546C35.5411 53.1492 35.5381 53.1492 35.5297 53.1485C35.5308 53.1339 35.5308 53.1285 35.5297 53.1257C35.5278 53.1182 35.5257 53.111 35.5246 53.1038C35.5246 53.1006 35.5225 53.1006 35.5225 53.0985C35.5183 53.0892 35.5162 53.081 35.5111 53.0706C35.5111 53.0685 35.509 53.0673 35.508 53.0652C35.508 53.0652 35.508 53.0652 35.5006 53.0724C35.5006 53.061 35.5017 53.0538 35.5006 53.0507C35.5006 53.0424 35.4997 53.0363 35.4997 53.0277C35.4997 53.0205 35.4955 53.0205 35.4882 53.0205C35.4862 53.0184 35.4841 53.0173 35.482 53.0124C35.4778 53.0049 35.4747 52.9988 35.4717 52.9905C35.4696 52.9874 35.4696 52.9822 35.4696 52.9677C35.4654 52.9677 35.4612 52.9677 35.4603 52.9644C35.455 52.9541 35.4498 52.947 35.4447 52.9375C35.4436 52.9333 35.4436 52.9292 35.4447 52.9178C35.4426 52.9158 35.4415 52.9148 35.4415 52.9137C35.4363 52.9023 35.4312 52.892 35.4259 52.8804C35.4249 52.8783 35.4249 52.8731 35.4249 52.8638C35.4177 52.8638 35.4177 52.8638 35.4051 52.8524C35.4061 52.8408 35.4061 52.8348 35.4031 52.8325C35.3989 52.8232 35.3947 52.8161 35.3907 52.8066C35.3865 52.7984 35.3823 52.7911 35.3782 52.7829C35.373 52.7743 35.3677 52.7651 35.3626 52.7547C35.3616 52.7516 35.3574 52.7505 35.3511 52.7486C35.3439 52.7454 35.3439 52.7454 35.3335 52.7193C35.3293 52.7089 35.3262 52.6997 35.3221 52.6893C35.32 52.6851 35.3179 52.6779 35.3158 52.6665C35.3095 52.6665 35.3076 52.6653 35.3044 52.6632C35.2992 52.6614 35.2962 52.6604 35.2909 52.6572C35.2899 52.656 35.2909 52.65 35.2962 52.6343C35.2846 52.6332 35.2846 52.6332 35.2816 52.6281C35.269 52.6071 35.269 52.6071 35.2639 52.5999C35.2525 52.5782 35.2525 52.5782 35.2494 52.5729C35.2462 52.5461 35.2462 52.5461 35.2338 52.5461C35.2287 52.5461 35.2255 52.545 35.2245 52.5428C35.2182 52.5314 35.212 52.5221 35.2057 52.5117C35.2026 52.5065 35.2006 52.4993 35.1985 52.4846C35.1891 52.4846 35.1891 52.4846 35.1777 52.4742C35.1777 52.4742 35.1777 52.4742 35.184 52.4598C35.1726 52.4598 35.1726 52.4598 35.1631 52.4463C35.1621 52.4381 35.1612 52.436 35.1591 52.4316C35.1538 52.4202 35.1507 52.4109 35.1466 52.3995C35.1435 52.3933 35.1393 52.3934 35.131 52.3934C35.1175 52.3848 35.1175 52.385 35.1154 52.358C35.1091 52.3569 35.106 52.3569 35.104 52.3548C35.0977 52.3434 35.0914 52.3341 35.0842 52.3238C35.0821 52.3194 35.08 52.3124 35.0791 52.2977C35.0665 52.2987 35.0665 52.2987 35.052 52.2948C35.0511 52.2801 35.05 52.2719 35.0469 52.2677C35.0406 52.2563 35.0344 52.247 35.0271 52.2354C35.025 52.2323 35.022 52.2323 35.0167 52.2323C35.0095 52.2302 35.0053 52.2294 35.0022 52.2251C34.968 52.1723 34.9347 52.1297 34.8921 52.0839C34.8735 52.065 34.8568 52.0454 34.8412 52.0257C33.7518 50.6942 33.7341 50.6735 32.7111 49.4439C32.683 49.4096 32.6613 49.3796 32.6364 49.3421C32.629 49.3295 32.6208 49.3191 32.6115 49.3109C32.5741 49.2756 32.544 49.2433 32.5117 49.203C32.247 48.8757 32.221 48.8413 31.9228 48.4614C31.9167 48.453 31.9114 48.4468 31.9053 48.4375C24.9636 39.0406 24.9303 38.9928 22.6476 34.3983C22.6309 34.3639 22.6174 34.3339 22.6039 34.2985C22.5624 34.1884 22.4793 34.1885 22.3371 34.3121C17.2606 39.4218 19.3294 43.3049 21.7773 48.6513C21.9112 48.9443 21.9091 49.2488 21.772 49.5404C21.6349 49.8312 21.4012 50.0264 21.0907 50.1086ZM41.7321 28.7217C44.0178 22.2827 44.6067 18.928 50.8153 18.1284C51.1809 18.0816 51.5161 18.2134 51.7519 18.496C51.9888 18.7795 52.0582 19.1337 51.9481 19.4856C51.5961 20.6127 51.297 22.4527 50.5899 27.1501C50.5276 27.5656 50.701 27.9563 51.0519 28.1868C51.4021 28.4172 51.8266 28.4226 52.1818 28.1992C57.4288 24.9048 69.8394 17.4044 72.3775 25.1571C72.3891 25.2923 72.2924 25.421 72.0494 25.5206C72.0163 25.5342 71.9881 25.5477 71.958 25.5645C67.4965 27.927 65.2345 29.1213 62.4864 30.9616C59.7166 32.8176 56.4336 35.3217 49.8679 40.3356C49.8505 40.3493 49.8358 40.3607 49.8193 40.3754C47.7835 42.1325 47.7753 42.1386 45.7335 43.9531C45.0648 44.5542 44.5288 44.8847 44.0832 44.9666C44.0814 44.9634 44.0803 44.9624 44.076 44.9624C44.0688 44.9624 44.0625 44.9624 44.0542 44.9624C44.0511 44.9616 44.047 44.9634 44.0397 44.9655C44.0242 44.9709 44.0242 44.9709 44.0178 44.9645C44.0023 44.9699 44.0023 44.9699 43.9836 44.9759C43.9785 44.9687 43.9785 44.9687 43.9741 44.9655C43.9578 44.9687 43.9578 44.9687 43.942 44.9748C43.9359 44.9676 43.9359 44.9676 43.912 44.9687C43.912 44.9687 43.912 44.9687 43.8924 44.9687C43.887 44.9655 43.887 44.9655 43.8694 44.9709C43.8652 44.9645 43.8652 44.9645 43.8609 44.9583C43.8477 44.9709 43.8477 44.9709 43.8477 44.9709C43.8433 44.9634 43.8433 44.9634 43.8402 44.9594C43.8288 44.9624 43.8247 44.9634 43.8226 44.9624C43.7965 44.9573 43.7748 44.9541 43.749 44.9511C43.723 44.948 43.6959 44.9448 43.6701 44.9417C43.6587 44.9291 43.6587 44.9291 43.6543 44.9252C43.6461 44.9273 43.6408 44.9283 43.6387 44.9283C43.6284 44.9273 43.6201 44.9252 43.6119 44.9241C43.6086 44.9241 43.6075 44.9218 43.6065 44.9179C43.5961 44.9073 43.5961 44.9073 43.5796 44.9158C43.5754 44.9065 43.5754 44.9066 43.5754 44.895C43.5589 44.8991 43.5514 44.9001 43.5486 44.9001C43.5411 44.8969 43.5349 44.894 43.5267 44.8919C43.5235 44.8898 43.5225 44.8887 43.5193 44.8847C43.5183 44.8836 43.5163 44.8815 43.5142 44.8815C43.5057 44.8805 43.4986 44.8784 43.4893 44.8763C43.486 44.8751 43.4788 44.8751 43.4664 44.8751C43.4613 44.868 43.4613 44.868 43.4518 44.8587C43.4332 44.8619 43.4332 44.8618 43.425 44.8515C43.4167 44.8471 43.4167 44.8472 43.3948 44.8482C43.3917 44.8409 43.3917 44.8409 43.3875 44.8244C43.3656 44.8368 43.3656 44.8368 43.3656 44.8233C43.3656 44.8233 43.3656 44.8233 43.3596 44.8189C43.3542 44.8129 43.3542 44.813 43.3314 44.8119C43.3273 44.8086 43.3273 44.8086 43.317 44.7983C43.3002 44.8026 43.3002 44.8026 43.2909 44.79C43.2867 44.7869 43.2867 44.7869 43.2627 44.7879C43.2534 44.7755 43.2534 44.7755 43.2484 44.7683C43.243 44.7525 43.243 44.7525 43.2162 44.759C43.2162 44.7465 43.2162 44.7465 43.2058 44.7383C43.1848 44.7383 43.1848 44.7383 43.1808 44.7297C43.1694 44.7186 43.1694 44.7186 43.1476 44.7174C43.1373 44.708 43.1373 44.708 43.1308 44.705C43.1101 44.7039 43.1101 44.7039 43.1008 44.6925C43.1008 44.6811 43.1008 44.6811 43.0894 44.6718C43.0698 44.6718 43.0698 44.6718 43.0582 44.6592C43.05 44.6489 43.05 44.6489 43.024 44.6489C43.0207 44.6426 43.0207 44.6426 43.0104 44.631C43.0021 44.6196 43.0021 44.6196 42.9951 44.6042C42.9679 44.6082 42.9679 44.6082 42.9679 44.5989C42.9576 44.5896 42.9576 44.5896 42.9357 44.5886C42.9346 44.5875 42.9336 44.5865 42.9336 44.5865C42.9253 44.5772 42.9181 44.5689 42.9118 44.5596C42.9067 44.5542 42.9025 44.5542 42.8839 44.5532C42.8724 44.5428 42.8724 44.5428 42.8671 44.5274C42.8578 44.5181 42.8578 44.5181 42.8485 44.5056C42.8268 44.5067 42.8268 44.5067 42.8214 44.4992C42.8121 44.4888 42.8121 44.4888 42.807 44.4744C42.7975 44.4609 42.7975 44.4609 42.7767 44.4599C42.7674 44.4534 42.7642 44.4516 42.757 44.4441C42.7528 44.4402 42.7488 44.4348 42.7435 44.4299C42.7395 44.4266 42.7395 44.4245 42.7395 44.4131C42.7053 44.412 42.7053 44.412 42.6999 44.3966C42.6906 44.3852 42.6906 44.3852 42.6823 44.3727C42.6699 44.3601 42.6699 44.3601 42.648 44.3591C42.6366 44.3508 42.6366 44.3508 42.6313 44.3352C42.6252 44.3249 42.6252 44.3249 42.6138 44.3123C42.6138 44.3123 42.6138 44.3123 42.6066 44.3073C42.6024 44.303 42.6024 44.303 42.5763 44.2968C42.5649 44.2844 42.5649 44.2844 42.5598 44.2698C42.5484 44.2583 42.5484 44.2582 42.5347 44.2417C42.514 44.2407 42.5109 44.2407 42.5047 44.2354C42.4737 44.199 42.4444 44.1722 42.4083 44.1401C42.378 44.115 42.3511 44.0879 42.3282 44.061C42.3093 44.0382 42.294 44.0207 42.2731 43.9997C41.0964 42.791 41.0685 42.7617 39.9468 41.6163C39.9196 41.5871 39.8958 41.5602 39.871 41.5281C39.87 41.5271 39.8679 41.5239 39.8668 41.5227C39.8346 41.4803 39.8046 41.4459 39.765 41.4084C39.439 41.0928 39.414 41.0679 39.0817 40.7106C39.0724 40.7024 39.0649 40.6941 39.0556 40.6859C30.7815 32.422 30.7566 32.397 27.1123 29.1048C27.0978 29.0924 27.0853 29.0808 27.0687 29.0673C26.9721 28.9895 27.0178 28.8576 27.1725 28.68C32.5668 23.2475 35.2141 25.8251 40.1502 29.2356C40.4286 29.4267 40.7466 29.4735 41.0674 29.3696C41.3872 29.2656 41.6199 29.0405 41.7321 28.7217ZM74.5306 60.6261C82.2283 61.0778 86.3514 61.328 89.2635 61.5513C92.4612 61.7954 94.23 62.0177 97.6912 62.4432C97.7328 62.4486 97.7682 62.4548 97.8078 62.4642C97.8732 62.4797 97.9207 62.4329 97.9447 62.3282C99.9097 51.3725 82.7653 50.9559 74.4795 50.3079C74.0353 50.2736 73.6768 49.9799 73.5543 49.5497C73.4307 49.1198 73.5793 48.6806 73.9374 48.4136C79.2549 44.4588 91.5348 34.8035 79.5892 32.0772C79.5685 32.073 79.551 32.0676 79.531 32.0626C79.2633 31.9846 79.0129 32.0159 78.7792 32.1477C74.6325 34.9986 72.5541 36.4235 69.8965 38.4924C67.2367 40.56 63.9883 43.2831 57.4993 48.7241C57.4899 48.7323 57.4806 48.7398 57.4713 48.7481C55.4065 50.6049 55.4016 50.6091 53.3107 52.5179C52.726 53.0621 52.3594 53.5419 52.2214 53.9576C52.1976 54.0279 52.1839 54.0905 52.1746 54.1631C52.1746 54.1641 52.1746 54.1652 52.1746 54.1652C52.1715 54.1817 52.1694 54.1962 52.1676 54.2127C52.1676 54.2171 52.1664 54.2213 52.1611 54.2295C52.1632 54.2378 52.1643 54.243 52.1643 54.246C52.1632 54.2556 52.1632 54.2638 52.1632 54.2731C52.1632 54.2742 52.1632 54.2763 52.1632 54.2792C52.1611 54.2877 52.159 54.2918 52.159 54.2949C52.159 54.3021 52.159 54.3095 52.158 54.3167C52.158 54.3249 52.1571 54.3313 52.1571 54.3396C52.1571 54.3427 52.158 54.3428 52.1611 54.3449C52.1611 54.3449 52.1611 54.3449 52.1529 54.3521C52.1529 54.3563 52.1529 54.3592 52.1529 54.3613C52.156 54.3727 52.159 54.381 52.1611 54.3913C52.1611 54.3924 52.1611 54.3947 52.1622 54.3947C52.1676 54.4133 52.1676 54.4133 52.1664 54.4227C52.1694 54.4715 52.1779 54.5162 52.1911 54.5651C52.1976 54.5816 52.1976 54.5816 52.2018 54.5868C52.1976 54.5961 52.1976 54.6002 52.1986 54.6054C52.2025 54.6137 52.2069 54.6212 52.2111 54.6305C52.2121 54.6315 52.213 54.6326 52.2141 54.6333C52.2111 54.6522 52.2111 54.6522 52.2193 54.6636C52.2244 54.6687 52.2244 54.6687 52.2297 54.6855C52.2265 54.6959 52.2255 54.6997 52.2265 54.7041C52.2297 54.7104 52.2318 54.7155 52.234 54.7227C52.2351 54.7269 52.2379 54.729 52.2462 54.7323C52.2547 54.7455 52.2547 54.7455 52.2472 54.7623C52.2526 54.7769 52.2526 54.7769 52.2576 54.7851C52.263 54.7902 52.2661 54.7934 52.2672 54.7967C52.2691 54.8037 52.2712 54.8102 52.2744 54.8174C52.2754 54.8205 52.2754 54.8256 52.2754 54.8381C52.2754 54.8402 52.2765 54.8442 52.2786 54.8453C52.2826 54.8567 52.2868 54.866 52.2909 54.8766C52.2951 54.8841 52.2984 54.8921 52.3015 54.8993C52.3066 54.9077 52.3098 54.9149 52.3147 54.9242C52.3159 54.9275 52.3201 54.9306 52.3263 54.9368C52.3242 54.9482 52.324 54.9482 52.324 54.9575C52.3263 54.9657 52.3284 54.9699 52.3305 54.9743C52.3347 54.9836 52.3387 54.9906 52.3429 55.0011C52.3429 55.0022 52.344 55.0032 52.344 55.0042C52.3512 55.0135 52.3566 55.0229 52.3627 55.0332C52.3627 55.0353 52.3648 55.0374 52.3669 55.0407C52.3813 55.0521 52.3813 55.0521 52.3897 55.0625C52.3948 55.0779 52.3948 55.0779 52.402 55.0842C52.4041 55.1028 52.4041 55.1028 52.4031 55.1226C52.4116 55.1258 52.4155 55.1279 52.4176 55.131C52.423 55.1414 52.4281 55.1496 52.4344 55.1589C52.4362 55.1611 52.4374 55.1661 52.4385 55.1726C52.4448 55.1787 52.4488 55.1819 52.4499 55.1861C52.4551 55.1943 52.4592 55.2015 52.4644 55.2108C52.4695 55.2212 52.4727 55.2297 52.477 55.2379C52.4788 55.2411 52.4788 55.2441 52.4788 55.2483C52.4988 55.2597 52.4988 55.2597 52.5049 55.2762C52.5081 55.2869 52.5091 55.2897 52.5132 55.2951C52.5163 55.3013 52.5184 55.3065 52.5216 55.3127C52.5235 55.3148 52.5235 55.3179 52.5246 55.3179C52.5342 55.3283 52.5414 55.3388 52.5507 55.3502C52.5528 55.3533 52.5549 55.3541 52.56 55.3574C52.5714 55.3802 52.5714 55.3802 52.5735 55.3977C52.5766 55.4009 52.5786 55.4031 52.5817 55.4052C52.5892 55.4134 52.5952 55.4198 52.6014 55.428C52.6057 55.4321 52.6068 55.4352 52.611 55.4466C52.6254 55.4642 52.6254 55.4641 52.6347 55.4737C52.641 55.4902 52.641 55.4903 52.6557 55.4945C52.6606 55.511 52.6606 55.511 52.6699 55.5246C52.6732 55.5299 52.6753 55.5339 52.6782 55.5371C52.6846 55.5495 52.6918 55.5588 52.6981 55.5713C52.7004 55.5735 52.7004 55.5753 52.7022 55.5753C52.7107 55.5867 52.7179 55.5953 52.726 55.6056C52.7272 55.6077 52.7293 55.6097 52.7314 55.6118C52.7386 55.6181 52.7418 55.6221 52.7458 55.6253C52.7532 55.6346 52.7604 55.6418 52.7686 55.6524C52.7718 55.6554 52.7739 55.6607 52.7779 55.6721C52.7893 55.6835 52.7893 55.6835 52.7989 55.694C52.803 55.7103 52.803 55.7103 52.8258 55.7208C52.8279 55.7301 52.8289 55.7343 52.8322 55.7385C52.8382 55.7489 52.8426 55.7571 52.8487 55.7664C52.8529 55.7718 52.857 55.7759 52.8715 55.7843C52.8726 55.7853 52.8747 55.7873 52.8757 55.7894C52.8873 55.8008 52.8955 55.8101 52.9069 55.8225C52.9108 55.8258 52.9119 55.8308 52.9173 55.8413C52.9329 55.859 52.9329 55.859 52.9483 55.8755C52.9576 55.8851 52.9576 55.8851 52.9651 55.8995C52.9662 55.8974 52.9662 55.8974 52.9662 55.8974C52.969 55.9058 52.9713 55.9098 52.9755 55.913C53.0034 55.9409 53.0263 55.9659 53.0512 55.9959C53.0877 56.0399 53.127 56.0844 53.1696 56.1249C53.182 56.1374 53.1913 56.1467 53.2039 56.1591C54.6247 57.6576 54.6307 57.6661 56.0796 59.202C56.1192 59.2446 56.1471 59.2757 56.1835 59.3121C56.1888 59.3175 56.1939 59.3225 56.1991 59.3279C56.6799 59.8407 56.682 59.8439 57.1648 60.356C63.9247 67.6194 67.3063 71.2566 70.2049 74.4188C73.1037 77.5782 75.5182 80.2847 80.3536 85.6748C80.3619 85.6842 80.3694 85.6904 80.3776 85.6997C80.4399 85.7663 80.5044 85.8254 80.5645 85.8773C80.8815 86.1485 81.2988 86.2076 81.6769 86.0363C92.2389 81.236 79.1937 68.0754 73.7173 62.4081C73.41 62.0903 73.3342 61.6395 73.5168 61.2375C73.6998 60.8358 74.0904 60.6 74.5306 60.6261Z" fill="#FF6900"/>
<path fill-rule="evenodd" clip-rule="evenodd" d="M113.666 45.0476C114.55 44.2644 115.768 44.0121 116.921 43.9956C120.77 43.9956 124.61 43.9956 128.459 43.9956C128.957 44.0039 129.463 43.9799 129.959 44.0349C130.901 44.1543 131.803 44.6831 132.275 45.5129C132.632 46.1058 132.742 46.8329 132.632 47.5202C132.473 48.5007 131.794 49.3616 130.909 49.8041C130.426 50.0649 129.866 50.1521 129.32 50.1603C125.843 50.1603 122.374 50.1603 118.897 50.1603C118.897 51.8117 118.897 53.4558 118.897 55.0997C121.9 55.0997 124.903 55.0997 127.906 55.0997C128.65 55.0997 129.431 55.2647 130.016 55.755C130.744 56.3243 131.059 57.3035 130.964 58.205C130.894 59.1459 130.309 60.0308 129.463 60.4566C128.965 60.7422 128.389 60.8211 127.819 60.8283C124.847 60.8283 121.868 60.8283 118.897 60.8283C118.904 62.4963 118.889 64.1559 118.904 65.8155C122.35 65.7998 125.804 65.8155 129.25 65.8073C129.533 65.8073 129.826 65.8227 130.111 65.8634C131.162 66.0606 132.103 66.8021 132.529 67.7909C132.869 68.5656 132.814 69.4815 132.458 70.241C132.086 71.0072 131.383 71.6075 130.57 71.8454C130.198 71.972 129.794 71.9948 129.407 72.0116C125.243 72.0116 121.078 72.0116 116.912 72.0116C115.775 71.9948 114.583 71.7342 113.704 70.9595C112.654 70.1223 112.188 68.739 112.18 67.4273C112.18 61.1285 112.18 54.8298 112.18 48.5319C112.18 47.244 112.63 45.8774 113.666 45.0476ZM137.855 50.4915C138.962 50.2622 140.162 50.6577 140.905 51.5033C142.328 53.1077 143.711 54.7434 145.133 56.3553C146.296 55.0364 147.434 53.7081 148.588 52.388C148.943 51.9777 149.284 51.5511 149.686 51.1959C150.31 50.6817 151.124 50.3972 151.93 50.4294C153.044 50.444 154.103 51.1002 154.664 52.0485C155.107 52.7921 155.203 53.7237 154.942 54.5378C154.696 55.3916 154.055 56.0241 153.494 56.672C152.159 58.2207 150.808 59.7617 149.48 61.3185C150.854 62.8431 152.198 64.4165 153.566 65.9577C154.04 66.5112 154.586 67.0326 154.87 67.7202C155.257 68.5886 155.249 69.6239 154.831 70.4703C154.49 71.1183 153.946 71.6478 153.274 71.9399C152.198 72.4301 150.863 72.2879 149.908 71.592C149.425 71.2283 149.062 70.7466 148.666 70.3041C147.488 68.9531 146.32 67.5933 145.133 66.2496C143.995 67.554 142.867 68.8812 141.728 70.193C141.223 70.7549 140.78 71.4174 140.092 71.7893C139.175 72.3033 138.013 72.3668 137.05 71.9481C136.306 71.6396 135.721 71.0145 135.413 70.2803C135.074 69.4659 135.106 68.5178 135.469 67.712C135.746 67.0712 136.25 66.5663 136.702 66.0356C138.068 64.4643 139.412 62.8752 140.795 61.3185C139.357 59.6268 137.903 57.9599 136.457 56.2764C136.006 55.7706 135.571 55.2254 135.382 54.5618C135.16 53.8824 135.169 53.1159 135.446 52.4441C135.856 51.4482 136.796 50.6973 137.855 50.4915ZM261.455 50.8875C263.257 50.3889 265.139 50.1759 267.004 50.2704C268.774 50.3889 270.536 50.9028 272.014 51.9146C273.808 53.1077 275.072 55.0281 275.57 57.1218C275.863 58.2911 275.887 59.5083 275.909 60.7017C275.926 62.3303 275.933 63.9815 275.587 65.5775C275.207 67.3245 274.378 69.0081 273.034 70.217C271.936 71.2202 270.536 71.8526 269.081 72.1289C267.043 72.5162 264.901 72.2951 262.973 71.537C262.973 72.8007 262.973 74.0657 262.973 75.3296C262.958 75.9861 263.005 76.6497 262.933 77.2977C262.777 78.7122 261.623 79.9616 260.2 80.1746C259.409 80.3085 258.571 80.1267 257.893 79.6926C256.897 79.0529 256.367 77.844 256.414 76.6736C256.414 69.2136 256.406 61.761 256.414 54.3009C256.39 53.787 256.603 53.2584 257.038 52.9572C258.358 51.9849 259.891 51.3453 261.455 50.8875ZM265.06 56.6327C265.945 56.4665 266.909 56.4737 267.73 56.9016C268.387 57.2255 268.868 57.8415 269.098 58.5291C269.368 59.3349 269.368 60.1886 269.375 61.0256C269.375 61.8711 269.375 62.7176 269.279 63.5556C269.185 64.3139 268.853 65.0969 268.213 65.555C267.596 66.0045 266.806 66.1239 266.056 66.1157C264.995 66.0606 263.899 65.8466 262.973 65.2941C262.973 62.6855 262.973 60.0776 262.973 57.4781C263.581 57.02 264.325 56.7906 265.06 56.6327ZM238.495 51.1791C239.95 50.6184 241.499 50.3493 243.047 50.2622C245.03 50.1914 247.078 50.3339 248.927 51.1158C250.168 51.6383 251.275 52.5221 251.969 53.6759C253.051 55.4154 253.204 57.5331 253.163 59.525C253.163 62.1566 253.163 64.7957 253.163 67.4273C253.156 68.0672 253.21 68.7473 252.958 69.3558C252.76 69.8618 252.31 70.193 251.866 70.4703C250.057 71.5692 247.97 72.1217 245.884 72.3582C244.153 72.5412 242.383 72.5558 240.676 72.1767C239.215 71.8526 237.784 71.1972 236.741 70.0983C235.571 68.9208 234.964 67.2528 234.955 65.61C234.923 64.0842 235.421 62.5193 236.464 61.3901C237.445 60.2915 238.852 59.6516 240.281 59.3507C241.372 59.1209 242.485 59.0658 243.601 59.1137C244.73 59.1377 245.86 59.3028 246.959 59.5955C246.92 58.8293 247.061 58.0232 246.793 57.2805C246.556 56.6004 245.86 56.2214 245.189 56.0945C244.115 55.8734 243.007 55.9836 241.942 56.2056C241.024 56.3876 240.115 56.7033 239.176 56.6795C238.352 56.6795 237.499 56.4507 236.899 55.8734C236.108 55.0914 235.966 53.7713 236.489 52.8075C236.899 52.0089 237.68 51.5033 238.495 51.1791ZM241.411 64.211C241.862 63.5556 242.675 63.2627 243.443 63.2232C244.636 63.1599 245.837 63.3105 246.967 63.6813C246.944 64.6616 246.974 65.6411 246.952 66.6213C245.711 67.3713 244.169 67.6487 242.747 67.3328C242.153 67.1823 241.57 66.8343 241.285 66.2651C240.992 65.6183 240.992 64.8113 241.411 64.211ZM209.492 50.3576C211.175 50.1053 212.938 50.0337 214.574 50.5788C215.609 50.9028 216.527 51.495 217.324 52.2147C218.953 51.1398 220.834 50.4522 222.769 50.2227C224.539 50.073 226.373 50.2071 228.041 50.8635C229.526 51.4314 230.767 52.5852 231.439 54.0248C232.205 55.6046 232.403 57.3906 232.418 59.1294C232.418 62.3456 232.418 65.5622 232.418 68.7786C232.411 69.5376 232.198 70.3113 231.731 70.9281C231.328 71.4653 230.743 71.8683 230.102 72.0656C229.375 72.3033 228.562 72.374 227.836 72.1059C227.012 71.8298 226.325 71.2047 225.946 70.4307C225.67 69.8928 225.583 69.2843 225.583 68.6922C225.583 66.1074 225.583 63.5306 225.583 60.9477C225.574 60.2115 225.616 59.4771 225.535 58.7502C225.464 58.1489 225.266 57.5163 224.785 57.1301C224.272 56.7033 223.576 56.6159 222.935 56.6565C222.263 56.6948 221.663 57.0357 221.125 57.4146C221.11 60.6789 221.125 63.9347 221.117 67.1895C221.101 67.956 221.165 68.7233 221.054 69.4815C220.919 70.1856 220.58 70.8495 220.051 71.3312C219.371 71.9795 218.407 72.2639 217.483 72.2793C216.115 72.2639 214.852 71.268 214.463 69.9719C214.267 69.4109 214.282 68.8023 214.282 68.2176C214.282 65.6886 214.282 63.1599 214.282 60.6311C214.267 59.8251 214.345 59.0037 214.123 58.2122C213.958 57.6275 213.556 57.0822 212.969 56.8538C211.934 56.4342 210.716 56.6877 209.816 57.3201C209.816 60.8441 209.816 64.3761 209.816 67.901C209.809 68.5811 209.855 69.2842 209.635 69.9322C209.407 70.6437 208.931 71.2763 208.307 71.6793C207.652 72.0906 206.876 72.2879 206.102 72.2721C204.743 72.2243 203.503 71.2201 203.107 69.9322C202.934 69.4026 202.942 68.8419 202.942 68.2965C202.942 63.9731 202.942 59.6591 202.942 55.3355C202.942 54.7122 202.925 54.0561 203.225 53.4869C203.549 52.9344 204.095 52.5542 204.616 52.1979C206.087 51.2342 207.769 50.6495 209.492 50.3576ZM188.638 50.2622C191.056 49.962 193.609 50.3493 195.727 51.6062C197.425 52.5938 198.785 54.1587 199.456 56.0159C200.072 57.6357 200.072 59.3982 200.096 61.1046C200.089 62.4017 200.072 63.705 199.843 64.9857C199.504 66.7314 198.634 68.3838 197.354 69.6239C195.875 71.0936 193.885 71.9867 191.83 72.2793C189.53 72.6117 187.096 72.2721 185.033 71.1494C182.615 69.8762 180.823 67.4586 180.395 64.7406C180.19 63.4373 180.181 62.109 180.181 60.789C180.214 59.2238 180.236 57.612 180.79 56.127C181.271 54.759 182.126 53.5262 183.224 52.5782C184.733 51.2663 186.662 50.4915 188.638 50.2622ZM189.428 56.4269C190.439 56.2692 191.561 56.4186 192.383 57.0822C193.087 57.6203 193.442 58.4979 193.49 59.366C193.546 60.4731 193.529 61.5791 193.505 62.6855C193.49 63.4755 193.324 64.3053 192.818 64.9307C192.257 65.6733 191.324 66.0689 190.417 66.1074C189.325 66.1872 188.141 65.8227 187.468 64.9139C186.67 63.8798 186.686 62.5035 186.686 61.2636C186.709 60.1325 186.614 58.9164 187.216 57.9038C187.658 57.0908 188.519 56.5694 189.428 56.4269ZM165.895 50.2622C167.237 50.1438 168.613 50.1053 169.949 50.3661C171.529 50.6495 173.054 51.3059 174.287 52.3412C175.756 53.5419 176.761 55.2647 177.187 57.1061C177.463 58.26 177.487 59.4533 177.511 60.6311C177.535 62.4246 177.535 64.2588 177.061 66.0045C176.69 67.4036 176.009 68.7473 174.989 69.7899C173.915 70.9209 172.469 71.6625 170.959 71.9867C168.841 72.4611 166.589 72.2472 164.575 71.4581C164.575 73.1966 164.575 74.9351 164.575 76.6818C164.575 77.4401 164.353 78.2148 163.879 78.8234C163.325 79.5743 162.433 80.0801 161.5 80.1267C160.615 80.1902 159.698 79.8816 159.058 79.2657C158.347 78.6095 158.008 77.6301 158.015 76.6736C158.015 69.2447 158.015 61.8161 158.015 54.3884C158.023 54.0633 158.023 53.732 158.165 53.4401C158.347 53.0528 158.717 52.8075 159.058 52.5854C161.096 51.2663 163.483 50.5311 165.895 50.2622ZM164.575 57.3992C165.397 56.8134 166.415 56.5371 167.411 56.4582C168.431 56.3876 169.553 56.6948 170.201 57.5331C170.849 58.3319 170.944 59.4068 170.975 60.3942C170.984 61.3976 170.992 62.4017 170.888 63.4041C170.803 64.1871 170.479 65.0012 169.814 65.4759C169.198 65.9267 168.407 66.0438 167.656 66.0356C166.597 65.9807 165.499 65.7677 164.575 65.2142C164.575 62.6064 164.575 59.9985 164.575 57.3992Z" fill="white"/>
</g>
</svg>
