<svg width="240" height="80" viewBox="0 0 240 80" fill="none" xmlns="http://www.w3.org/2000/svg">
<mask id="mask0_167_2768" style="mask-type:luminance" maskUnits="userSpaceOnUse" x="30" y="13" width="180" height="54">
<path d="M209.736 13.6836H30.7891V66.3152H209.736V13.6836Z" fill="white"/>
</mask>
<g mask="url(#mask0_167_2768)">
<path fill-rule="evenodd" clip-rule="evenodd" d="M79.2188 44.3863V19.2635H94.2834V23.9302H84.4966V29.4039H92.5008V33.8951H84.4966V39.7197H94.2834V44.3863H79.2188ZM129.9 26.2811H139.355L143.27 38.0355L147.184 26.2811H151.973L142.571 52.246H137.782L140.648 44.3863L134.378 27.1109L128.642 44.3863H123.084L117.142 26.2811H122.42L126.125 38.4916L129.9 26.2811ZM98.5476 44.3863V30.9477C98.5476 30.4331 98.4311 30.0823 98.1981 29.8951C97.965 29.708 97.5689 29.6144 97.0097 29.6144H96.6252V26.2811C97.3242 26.0238 98.2097 25.8951 99.2816 25.8951C101.449 25.8951 102.684 26.8308 102.987 28.7021C103.313 28.0939 103.989 27.4741 105.014 26.8425C106.039 26.2109 107.262 25.8951 108.684 25.8951C113.018 25.8951 115.185 28.3746 115.185 33.3337V44.3863H109.977V33.5442C109.977 32.515 109.727 31.7197 109.226 31.1583C108.725 30.5969 107.985 30.3162 107.006 30.3162C106.354 30.3162 105.759 30.439 105.224 30.6846C104.688 30.9302 104.303 31.17 104.07 31.4039L103.756 31.7548V44.3863H98.5476ZM163.752 44.7723C161.771 44.7723 160.152 44.0589 158.893 42.632L158.299 44.3863H154.315V22.3162C154.315 21.8015 154.198 21.4448 153.965 21.246C153.732 21.0472 153.336 20.936 152.777 20.9127H152.462V17.6144C153.231 17.3337 154.291 17.1934 155.643 17.1934C158.229 17.1934 159.523 18.4331 159.523 20.9127V28.2109L159.697 27.9477C159.767 27.8425 159.942 27.6612 160.222 27.4039C160.501 27.1466 160.81 26.9127 161.148 26.7021C161.486 26.4916 161.94 26.3045 162.511 26.1407C163.082 25.977 163.682 25.8951 164.311 25.8951C166.711 25.8951 168.511 26.7548 169.711 28.4741C170.911 30.1934 171.511 32.3629 171.511 34.9828C171.511 37.8834 170.812 40.2401 169.414 42.053C168.016 43.8659 166.129 44.7723 163.752 44.7723ZM159.523 39.6144C160.222 40.2928 161.189 40.632 162.424 40.632C163.659 40.632 164.585 40.1524 165.202 39.1934C165.82 38.2343 166.129 36.9127 166.129 35.2284C166.129 31.9302 164.929 30.2811 162.529 30.2811C161.923 30.2811 161.369 30.4097 160.868 30.667C160.367 30.9244 160.024 31.1934 159.837 31.4741L159.523 31.86V39.6144ZM182.941 44.7723C180.191 44.7723 178.007 43.9244 176.387 42.2285C174.768 40.5325 173.958 38.2226 173.958 35.2986C173.958 32.3746 174.774 30.0764 176.405 28.4039C178.036 26.7314 180.215 25.8951 182.941 25.8951C185.691 25.8951 187.869 26.7314 189.477 28.4039C191.085 30.0764 191.889 32.3746 191.889 35.2986C191.889 38.246 191.079 40.5618 189.46 42.246C187.84 43.9302 185.667 44.7723 182.941 44.7723ZM182.941 40.9828C185.341 40.9828 186.541 39.0764 186.541 35.2635C186.541 31.5442 185.341 29.6846 182.941 29.6846C180.518 29.6846 179.306 31.5442 179.306 35.2635C179.306 39.0764 180.518 40.9828 182.941 40.9828ZM192.185 44.3863L197.988 35.3337L192.36 26.2811H197.953L201.238 31.6144L204.594 26.2811H209.487L203.825 34.9828L209.732 44.3863H204.139L200.574 38.7372L197.044 44.3863H192.185Z" fill="white"/>
<path fill-rule="evenodd" clip-rule="evenodd" d="M82.4628 60.9928C81.9188 60.9928 81.4437 60.8991 81.0374 60.7116C80.631 60.5241 80.2935 60.2658 80.0248 59.9369C79.7561 59.6079 79.5546 59.2198 79.4203 58.7724C79.2859 58.325 79.2188 57.8448 79.2188 57.3316C79.2188 56.8185 79.2908 56.3366 79.435 55.8859C79.5792 55.4352 79.7905 55.0421 80.0691 54.7066C80.3476 54.3711 80.6933 54.1063 81.1062 53.9122C81.5191 53.7181 81.9975 53.6211 82.5414 53.6211C82.9084 53.6211 83.2558 53.6704 83.5834 53.7691C83.9111 53.8678 84.2028 54.0125 84.4584 54.2033C84.714 54.3941 84.9269 54.6326 85.0973 54.9188C85.2677 55.205 85.3791 55.5356 85.4316 55.9106H84.4977C84.3928 55.4106 84.1618 55.0356 83.8046 54.7856C83.4475 54.5356 83.0231 54.4106 82.5316 54.4106C82.1122 54.4106 81.7533 54.4895 81.4552 54.6474C81.157 54.8053 80.9112 55.0175 80.7179 55.2839C80.5245 55.5504 80.382 55.8546 80.2902 56.1968C80.1985 56.5389 80.1526 56.8941 80.1526 57.2625C80.1526 57.6639 80.1985 58.0438 80.2902 58.4023C80.382 58.7609 80.5245 59.0734 80.7179 59.3398C80.9112 59.6063 81.1586 59.8185 81.4601 59.9764C81.7615 60.1343 82.122 60.2132 82.5414 60.2132C82.8429 60.2132 83.1149 60.1622 83.3573 60.0602C83.5998 59.9583 83.8079 59.8168 83.9816 59.6359C84.1553 59.455 84.2912 59.2395 84.3895 58.9895C84.4879 58.7395 84.5468 58.4698 84.5665 58.1803H85.5005C85.4087 59.075 85.1055 59.7675 84.5911 60.2576C84.0766 60.7477 83.3672 60.9928 82.4628 60.9928ZM88.9334 60.9435C88.5271 60.9435 88.1715 60.876 87.8668 60.7412C87.5621 60.6063 87.3048 60.4188 87.0951 60.1787C86.8854 59.9385 86.7281 59.6573 86.6232 59.3349C86.5184 59.0125 86.466 58.6639 86.466 58.2889C86.466 57.9139 86.5184 57.5635 86.6232 57.2379C86.7281 56.9122 86.8854 56.6293 87.0951 56.3892C87.3048 56.1491 87.5621 55.9599 87.8668 55.8218C88.1715 55.6836 88.5271 55.6145 88.9334 55.6145C89.3332 55.6145 89.6871 55.6836 89.9951 55.8218C90.3031 55.9599 90.562 56.1491 90.7717 56.3892C90.9814 56.6293 91.1387 56.9122 91.2436 57.2379C91.3484 57.5635 91.4008 57.9139 91.4008 58.2889C91.4008 58.6639 91.3484 59.0125 91.2436 59.3349C91.1387 59.6573 90.9814 59.9385 90.7717 60.1787C90.562 60.4188 90.3031 60.6063 89.9951 60.7412C89.6871 60.876 89.3332 60.9435 88.9334 60.9435ZM88.9334 60.2132C89.1497 60.2132 89.3545 60.1704 89.5478 60.0849C89.7411 59.9994 89.9099 59.876 90.0541 59.7148C90.1983 59.5537 90.3113 59.353 90.3932 59.1129C90.4751 58.8727 90.5161 58.5981 90.5161 58.2889C90.5161 57.9796 90.4751 57.705 90.3932 57.4648C90.3113 57.2247 90.1983 57.0224 90.0541 56.8579C89.9099 56.6935 89.7411 56.5685 89.5478 56.4829C89.3545 56.3974 89.1497 56.3546 88.9334 56.3546C88.7171 56.3546 88.5123 56.3974 88.319 56.4829C88.1257 56.5685 87.9569 56.6935 87.8127 56.8579C87.6685 57.0224 87.5555 57.2247 87.4736 57.4648C87.3917 57.705 87.3507 57.9796 87.3507 58.2889C87.3507 58.5981 87.3917 58.8727 87.4736 59.1129C87.5555 59.353 87.6685 59.5537 87.8127 59.7148C87.9569 59.876 88.1257 59.9994 88.319 60.0849C88.5123 60.1704 88.7171 60.2132 88.9334 60.2132ZM94.765 60.9435C94.3587 60.9435 94.0032 60.8777 93.6984 60.7461C93.3937 60.6145 93.1397 60.4303 92.9366 60.1935C92.7334 59.9566 92.581 59.6737 92.4795 59.3448C92.3779 59.0158 92.3271 58.6573 92.3271 58.2691C92.3271 57.8875 92.3861 57.5339 92.504 57.2083C92.622 56.8826 92.7875 56.6014 93.0005 56.3645C93.2135 56.1277 93.4658 55.9435 93.7574 55.8119C94.0491 55.6803 94.3686 55.6145 94.716 55.6145C95.1682 55.6145 95.5433 55.7083 95.8415 55.8958C96.1397 56.0833 96.3789 56.3218 96.5591 56.6112C96.7393 56.9007 96.8638 57.2165 96.9327 57.5586C97.0015 57.9007 97.0293 58.2264 97.0162 58.5356H93.2118C93.2053 58.7593 93.2315 58.9714 93.2905 59.1721C93.3495 59.3727 93.4445 59.5504 93.5756 59.705C93.7066 59.8596 93.8739 59.9829 94.077 60.075C94.2802 60.1671 94.5193 60.2132 94.7945 60.2132C95.1484 60.2132 95.4384 60.131 95.6645 59.9665C95.8906 59.802 96.0397 59.552 96.1118 59.2165H96.9376C96.8262 59.7954 96.5804 60.228 96.2003 60.5142C95.8202 60.8004 95.3418 60.9435 94.765 60.9435ZM96.1315 57.7954C96.1184 57.5981 96.0741 57.4106 95.9988 57.2329C95.9234 57.0553 95.8218 56.9023 95.694 56.7741C95.5662 56.6458 95.4155 56.5438 95.2418 56.4681C95.0682 56.3925 94.8765 56.3546 94.6667 56.3546C94.4505 56.3546 94.2555 56.3925 94.0818 56.4681C93.9082 56.5438 93.7591 56.6474 93.6345 56.779C93.51 56.9106 93.4117 57.0635 93.3396 57.2379C93.2675 57.4122 93.2249 57.5981 93.2118 57.7954H96.1315ZM97.5001 60.0948H98.0998C98.1718 59.9566 98.2456 59.7675 98.3209 59.5273C98.3963 59.2872 98.4651 59.0208 98.5274 58.728C98.5896 58.4352 98.6404 58.1244 98.6798 57.7954C98.7191 57.4665 98.7387 57.1441 98.7387 56.8283V55.7329H102.415V60.0948H103.103V62.3843H102.307V60.8349H98.2964V62.3843H97.5001V60.0948ZM101.58 60.0948V56.4731H99.5547V56.9073C99.5547 57.2296 99.5366 57.5504 99.5006 57.8694C99.4645 58.1885 99.417 58.4895 99.3581 58.7724C99.2991 59.0553 99.2352 59.3119 99.1664 59.5421C99.0975 59.7724 99.0304 59.9566 98.9648 60.0948H101.58ZM104.108 55.7329H104.944V59.8974L107.343 55.7329H108.414V60.8349H107.578V56.6704L105.18 60.8349H104.108V55.7329ZM109.891 55.7329H110.726V57.7658H113.302V55.7329H114.138V60.8349H113.302V58.4862H110.726V60.8349H109.891V55.7329ZM116.686 58.8415C116.325 58.7889 116.031 58.6244 115.801 58.3481C115.572 58.0718 115.457 57.7231 115.457 57.302C115.457 56.8218 115.6 56.4402 115.885 56.1573C116.17 55.8744 116.558 55.7329 117.05 55.7329H119.625V60.8349H118.79V58.8711H117.679L116.126 60.8349H115.015L116.686 58.8415ZM118.79 58.1507V56.4731H117.315C116.961 56.4731 116.706 56.5487 116.548 56.7C116.391 56.8514 116.312 57.0553 116.312 57.3119C116.312 57.575 116.391 57.7806 116.548 57.9287C116.706 58.0767 116.961 58.1507 117.315 58.1507H118.79ZM123.265 60.9435C122.858 60.9435 122.503 60.8777 122.198 60.7461C121.893 60.6145 121.639 60.4303 121.436 60.1935C121.233 59.9566 121.081 59.6737 120.979 59.3448C120.877 59.0158 120.827 58.6573 120.827 58.2691C120.827 57.8875 120.886 57.5339 121.004 57.2083C121.122 56.8826 121.287 56.6014 121.5 56.3645C121.713 56.1277 121.965 55.9435 122.257 55.8119C122.549 55.6803 122.868 55.6145 123.215 55.6145C123.668 55.6145 124.043 55.7083 124.341 55.8958C124.639 56.0833 124.878 56.3218 125.059 56.6112C125.239 56.9007 125.363 57.2165 125.432 57.5586C125.501 57.9007 125.529 58.2264 125.516 58.5356H121.711C121.705 58.7593 121.731 58.9714 121.79 59.1721C121.849 59.3727 121.944 59.5504 122.075 59.705C122.206 59.8596 122.373 59.9829 122.576 60.075C122.78 60.1671 123.019 60.2132 123.294 60.2132C123.648 60.2132 123.938 60.131 124.164 59.9665C124.39 59.802 124.539 59.552 124.611 59.2165H125.437C125.326 59.7954 125.08 60.228 124.7 60.5142C124.32 60.8004 123.841 60.9435 123.265 60.9435ZM124.631 57.7954C124.618 57.5981 124.574 57.4106 124.498 57.2329C124.423 57.0553 124.321 56.9023 124.194 56.7741C124.066 56.6458 123.915 56.5438 123.741 56.4681C123.568 56.3925 123.376 56.3546 123.166 56.3546C122.95 56.3546 122.755 56.3925 122.581 56.4681C122.408 56.5438 122.259 56.6474 122.134 56.779C122.01 56.9106 121.911 57.0635 121.839 57.2379C121.767 57.4122 121.725 57.5981 121.711 57.7954H124.631ZM127.828 56.4731H126.01V55.7329H130.482V56.4731H128.664V60.8349H127.828V56.4731ZM134.321 55.7329H136.67C136.893 55.7329 137.108 55.7494 137.314 55.7823C137.52 55.8152 137.706 55.876 137.869 55.9648C138.033 56.0537 138.164 56.1803 138.263 56.3448C138.361 56.5093 138.41 56.7198 138.41 56.9764C138.41 57.2527 138.345 57.4764 138.213 57.6474C138.082 57.8185 137.899 57.9599 137.663 58.0718V58.0816C137.958 58.1408 138.192 58.279 138.366 58.4961C138.54 58.7132 138.626 58.9928 138.626 59.3349C138.626 59.552 138.589 59.7527 138.513 59.9369C138.438 60.1211 138.331 60.279 138.194 60.4106C138.056 60.5421 137.892 60.6458 137.702 60.7214C137.512 60.7971 137.306 60.8349 137.083 60.8349H134.321V55.7329ZM136.926 60.1244C137.201 60.1244 137.409 60.0438 137.55 59.8826C137.691 59.7214 137.761 59.5191 137.761 59.2757C137.761 59.0454 137.686 58.8612 137.535 58.7231C137.384 58.5849 137.132 58.5158 136.778 58.5158H135.146V60.1244H136.926ZM136.582 57.825C136.942 57.825 137.193 57.7593 137.334 57.6277C137.475 57.4961 137.545 57.3218 137.545 57.1046C137.545 56.8941 137.476 56.7313 137.339 56.6162C137.201 56.501 136.949 56.4435 136.582 56.4435H135.146V57.825H136.582ZM144.903 60.9435C144.516 60.9435 144.173 60.881 143.875 60.756C143.577 60.631 143.328 60.4533 143.128 60.2231C142.928 59.9928 142.778 59.7198 142.676 59.404C142.574 59.0882 142.524 58.7362 142.524 58.3481C142.524 57.9665 142.573 57.6096 142.671 57.2773C142.769 56.9451 142.918 56.6556 143.118 56.4089C143.318 56.1622 143.567 55.9681 143.865 55.8267C144.164 55.6852 144.516 55.6145 144.922 55.6145C145.211 55.6145 145.481 55.6491 145.733 55.7181C145.986 55.7872 146.208 55.8941 146.402 56.0389C146.595 56.1836 146.754 56.3662 146.878 56.5866C147.003 56.8069 147.082 57.0685 147.114 57.3711H146.249C146.184 57.0487 146.046 56.7987 145.836 56.6211C145.627 56.4435 145.345 56.3546 144.991 56.3546C144.69 56.3546 144.437 56.4106 144.234 56.5224C144.031 56.6343 143.869 56.7823 143.747 56.9665C143.626 57.1507 143.539 57.3629 143.487 57.603C143.435 57.8431 143.408 58.0915 143.408 58.3481C143.408 58.5849 143.436 58.8152 143.492 59.0389C143.548 59.2625 143.634 59.4616 143.752 59.6359C143.87 59.8102 144.023 59.95 144.21 60.0553C144.396 60.1606 144.624 60.2132 144.893 60.2132C145.306 60.2132 145.628 60.1046 145.861 59.8875C146.094 59.6704 146.236 59.3645 146.289 58.9698H147.144C147.052 59.6079 146.819 60.0964 146.446 60.4352C146.072 60.7741 145.558 60.9435 144.903 60.9435ZM150.459 60.9435C150.053 60.9435 149.697 60.8777 149.392 60.7461C149.088 60.6145 148.834 60.4303 148.63 60.1935C148.427 59.9566 148.275 59.6737 148.173 59.3448C148.072 59.0158 148.021 58.6573 148.021 58.2691C148.021 57.8875 148.08 57.5339 148.198 57.2083C148.316 56.8826 148.481 56.6014 148.694 56.3645C148.907 56.1277 149.16 55.9435 149.451 55.8119C149.743 55.6803 150.062 55.6145 150.41 55.6145C150.862 55.6145 151.237 55.7083 151.535 55.8958C151.834 56.0833 152.073 56.3218 152.253 56.6112C152.433 56.9007 152.558 57.2165 152.627 57.5586C152.695 57.9007 152.723 58.2264 152.71 58.5356H148.906C148.899 58.7593 148.925 58.9714 148.984 59.1721C149.043 59.3727 149.138 59.5504 149.269 59.705C149.401 59.8596 149.568 59.9829 149.771 60.075C149.974 60.1671 150.213 60.2132 150.488 60.2132C150.842 60.2132 151.132 60.131 151.358 59.9665C151.585 59.802 151.734 59.552 151.806 59.2165H152.631C152.52 59.7954 152.274 60.228 151.894 60.5142C151.514 60.8004 151.036 60.9435 150.459 60.9435ZM151.825 57.7954C151.812 57.5981 151.768 57.4106 151.693 57.2329C151.617 57.0553 151.516 56.9023 151.388 56.7741C151.26 56.6458 151.109 56.5438 150.936 56.4681C150.762 56.3925 150.57 56.3546 150.361 56.3546C150.144 56.3546 149.949 56.3925 149.776 56.4681C149.602 56.5438 149.453 56.6474 149.328 56.779C149.204 56.9106 149.106 57.0635 149.034 57.2379C148.961 57.4122 148.919 57.5981 148.906 57.7954H151.825ZM156.064 60.9435C155.409 60.9435 154.88 60.7757 154.477 60.4402C154.074 60.1046 153.82 59.5849 153.715 58.881C153.676 58.6046 153.656 58.2954 153.656 57.9533C153.656 57.7099 153.664 57.4566 153.681 57.1935C153.697 56.9303 153.726 56.6704 153.769 56.4139C153.812 56.1573 153.871 55.9106 153.946 55.6737C154.021 55.4369 154.121 55.2231 154.246 55.0323C154.469 54.6836 154.741 54.4254 155.062 54.2576C155.383 54.0898 155.786 53.9895 156.271 53.9566C156.592 53.9303 156.861 53.9007 157.077 53.8678C157.293 53.8349 157.415 53.7527 157.441 53.6211H158.276C158.263 53.8777 158.208 54.075 158.109 54.2132C158.011 54.3514 157.873 54.455 157.696 54.5241C157.519 54.5931 157.303 54.6392 157.048 54.6622C156.792 54.6852 156.494 54.7099 156.153 54.7362C155.871 54.756 155.625 54.8218 155.416 54.9336C155.206 55.0454 155.027 55.1951 154.88 55.3826C154.732 55.5701 154.613 55.7905 154.521 56.0438C154.429 56.2971 154.364 56.575 154.325 56.8777H154.354C154.498 56.5421 154.723 56.2658 155.027 56.0487C155.332 55.8316 155.701 55.7231 156.133 55.7231C156.848 55.7231 157.411 55.9468 157.824 56.3941C158.237 56.8415 158.443 57.4862 158.443 58.3283C158.443 58.756 158.386 59.1326 158.271 59.4583C158.157 59.7839 157.995 60.0569 157.785 60.2773C157.575 60.4977 157.324 60.6639 157.033 60.7757C156.741 60.8875 156.418 60.9435 156.064 60.9435ZM156.074 60.2329C156.271 60.2329 156.461 60.1918 156.644 60.1096C156.828 60.0273 156.989 59.9073 157.126 59.7494C157.264 59.5915 157.375 59.3958 157.46 59.1622C157.546 58.9287 157.588 58.6573 157.588 58.3481C157.588 57.7494 157.451 57.279 157.175 56.9369C156.9 56.5948 156.527 56.4237 156.055 56.4237C155.583 56.4237 155.208 56.5964 154.929 56.9418C154.651 57.2872 154.511 57.7593 154.511 58.3579C154.511 58.9369 154.649 59.3941 154.924 59.7296C155.199 60.0652 155.583 60.2329 156.074 60.2329ZM161.808 60.9435C161.401 60.9435 161.046 60.8777 160.741 60.7461C160.436 60.6145 160.182 60.4303 159.979 60.1935C159.776 59.9566 159.624 59.6737 159.522 59.3448C159.421 59.0158 159.37 58.6573 159.37 58.2691C159.37 57.8875 159.429 57.5339 159.547 57.2083C159.665 56.8826 159.83 56.6014 160.043 56.3645C160.256 56.1277 160.508 55.9435 160.8 55.8119C161.092 55.6803 161.411 55.6145 161.759 55.6145C162.211 55.6145 162.586 55.7083 162.884 55.8958C163.182 56.0833 163.421 56.3218 163.602 56.6112C163.782 56.9007 163.906 57.2165 163.975 57.5586C164.044 57.9007 164.072 58.2264 164.059 58.5356H160.254C160.248 58.7593 160.274 58.9714 160.333 59.1721C160.392 59.3727 160.487 59.5504 160.618 59.705C160.749 59.8596 160.916 59.9829 161.12 60.075C161.323 60.1671 161.562 60.2132 161.837 60.2132C162.191 60.2132 162.481 60.131 162.707 59.9665C162.933 59.802 163.082 59.552 163.154 59.2165H163.98C163.869 59.7954 163.623 60.228 163.243 60.5142C162.863 60.8004 162.384 60.9435 161.808 60.9435ZM163.174 57.7954C163.161 57.5981 163.117 57.4106 163.041 57.2329C162.966 57.0553 162.864 56.9023 162.737 56.7741C162.609 56.6458 162.458 56.5438 162.284 56.4681C162.111 56.3925 161.919 56.3546 161.709 56.3546C161.493 56.3546 161.298 56.3925 161.124 56.4681C160.951 56.5438 160.802 56.6474 160.677 56.779C160.553 56.9106 160.454 57.0635 160.382 57.2379C160.31 57.4122 160.268 57.5981 160.254 57.7954H163.174ZM168.054 60.8941C167.969 60.8941 167.881 60.8859 167.789 60.8694C167.697 60.853 167.622 60.8382 167.563 60.825V60.0849C167.628 60.1046 167.689 60.1178 167.745 60.1244C167.8 60.131 167.854 60.1343 167.907 60.1343C168.123 60.1343 168.289 60.0487 168.403 59.8777C168.518 59.7066 168.603 59.4435 168.659 59.0882C168.715 58.7329 168.749 58.2773 168.762 57.7214C168.775 57.1655 168.788 56.5027 168.801 55.7329H172.37V60.8349H171.534V56.4731H169.608C169.588 57.0718 169.567 57.6392 169.544 58.1754C169.521 58.7116 169.463 59.1803 169.372 59.5816C169.28 59.9829 169.132 60.302 168.929 60.5389C168.726 60.7757 168.434 60.8941 168.054 60.8941ZM174.368 62.8678C174.269 62.8678 174.171 62.8612 174.073 62.8481C173.974 62.8349 173.879 62.8119 173.788 62.779V62.0093C173.866 62.0356 173.947 62.0619 174.029 62.0882C174.11 62.1145 174.194 62.1277 174.279 62.1277C174.45 62.1277 174.587 62.0882 174.692 62.0093C174.797 61.9303 174.889 61.8152 174.967 61.6639L175.311 60.8053L173.296 55.7329H174.24L175.724 59.9073H175.744L177.169 55.7329H178.054L175.842 61.506C175.744 61.756 175.647 61.9665 175.552 62.1375C175.457 62.3086 175.352 62.4484 175.238 62.5569C175.123 62.6655 174.995 62.7444 174.854 62.7938C174.713 62.8431 174.551 62.8678 174.368 62.8678ZM182.028 58.7625C181.877 58.8283 181.667 58.8908 181.399 58.95C181.13 59.0093 180.848 59.0389 180.553 59.0389C179.924 59.0389 179.475 58.9023 179.206 58.6293C178.938 58.3563 178.803 57.9731 178.803 57.4796V55.7329H179.639V57.3415C179.639 57.677 179.716 57.9254 179.87 58.0866C180.024 58.2477 180.304 58.3283 180.711 58.3283C180.96 58.3283 181.205 58.302 181.448 58.2494C181.69 58.1968 181.884 58.1375 182.028 58.0718V55.7329H182.863V60.8349H182.028V58.7625ZM184.34 55.7329H185.176V60.0948H187.073V55.7329H187.909V60.0948H189.806V55.7329H190.641V60.8349H184.34V55.7329ZM194.281 60.9435C193.875 60.9435 193.519 60.8777 193.214 60.7461C192.91 60.6145 192.656 60.4303 192.452 60.1935C192.249 59.9566 192.097 59.6737 191.995 59.3448C191.894 59.0158 191.843 58.6573 191.843 58.2691C191.843 57.8875 191.902 57.5339 192.02 57.2083C192.138 56.8826 192.303 56.6014 192.516 56.3645C192.729 56.1277 192.982 55.9435 193.273 55.8119C193.565 55.6803 193.884 55.6145 194.232 55.6145C194.684 55.6145 195.059 55.7083 195.357 55.8958C195.656 56.0833 195.895 56.3218 196.075 56.6112C196.255 56.9007 196.38 57.2165 196.449 57.5586C196.517 57.9007 196.545 58.2264 196.532 58.5356H192.728C192.721 58.7593 192.747 58.9714 192.806 59.1721C192.865 59.3727 192.96 59.5504 193.091 59.705C193.223 59.8596 193.39 59.9829 193.593 60.075C193.796 60.1671 194.035 60.2132 194.31 60.2132C194.664 60.2132 194.954 60.131 195.18 59.9665C195.407 59.802 195.556 59.552 195.628 59.2165H196.453C196.342 59.7954 196.096 60.228 195.716 60.5142C195.336 60.8004 194.858 60.9435 194.281 60.9435ZM195.647 57.7954C195.634 57.5981 195.59 57.4106 195.515 57.2329C195.439 57.0553 195.338 56.9023 195.21 56.7741C195.082 56.6458 194.931 56.5438 194.758 56.4681C194.584 56.3925 194.392 56.3546 194.183 56.3546C193.966 56.3546 193.771 56.3925 193.598 56.4681C193.424 56.5438 193.275 56.6474 193.15 56.779C193.026 56.9106 192.928 57.0635 192.856 57.2379C192.783 57.4122 192.741 57.5981 192.728 57.7954H195.647ZM199.778 60.9435C199.372 60.9435 199.016 60.8777 198.712 60.7461C198.407 60.6145 198.153 60.4303 197.95 60.1935C197.747 59.9566 197.594 59.6737 197.493 59.3448C197.391 59.0158 197.34 58.6573 197.34 58.2691C197.34 57.8875 197.399 57.5339 197.517 57.2083C197.635 56.8826 197.801 56.6014 198.014 56.3645C198.227 56.1277 198.479 55.9435 198.771 55.8119C199.062 55.6803 199.382 55.6145 199.729 55.6145C200.181 55.6145 200.557 55.7083 200.855 55.8958C201.153 56.0833 201.392 56.3218 201.572 56.6112C201.753 56.9007 201.877 57.2165 201.946 57.5586C202.015 57.9007 202.043 58.2264 202.03 58.5356H198.225C198.219 58.7593 198.245 58.9714 198.304 59.1721C198.363 59.3727 198.458 59.5504 198.589 59.705C198.72 59.8596 198.887 59.9829 199.09 60.075C199.293 60.1671 199.533 60.2132 199.808 60.2132C200.162 60.2132 200.452 60.131 200.678 59.9665C200.904 59.802 201.053 59.552 201.125 59.2165H201.951C201.839 59.7954 201.594 60.228 201.214 60.5142C200.833 60.8004 200.355 60.9435 199.778 60.9435ZM201.145 57.7954C201.132 57.5981 201.087 57.4106 201.012 57.2329C200.937 57.0553 200.835 56.9023 200.707 56.7741C200.58 56.6458 200.429 56.5438 200.255 56.4681C200.081 56.3925 199.89 56.3546 199.68 56.3546C199.464 56.3546 199.269 56.3925 199.095 56.4681C198.921 56.5438 198.772 56.6474 198.648 56.779C198.523 56.9106 198.425 57.0635 198.353 57.2379C198.281 57.4122 198.238 57.5981 198.225 57.7954H201.145Z" fill="white"/>
<path fill-rule="evenodd" clip-rule="evenodd" d="M48.8497 58.0903C49.7564 58.0903 50.4914 58.8266 50.4914 59.735C50.4914 60.0079 50.4251 60.2653 50.3076 60.4919L48.656 64.1401C48.1999 65.4077 46.9887 66.3139 45.5663 66.3139C44.1473 66.3139 42.9385 65.4121 42.4799 64.1494L34.3976 43.3819C34.191 42.9846 34.0742 42.533 34.0742 42.0541C34.0742 40.4644 35.3605 39.1758 36.9473 39.1758H54.0913C54.107 39.1758 54.1227 39.1759 54.1384 39.1762C54.154 39.1759 54.1696 39.1758 54.1853 39.1758C55.772 39.1758 57.0583 40.4644 57.0583 42.0541C57.0583 43.6437 55.772 44.9324 54.1853 44.9324C54.1632 44.9324 54.1411 44.9321 54.1191 44.9316C54.097 44.9321 54.075 44.9324 54.0529 44.9324H43.5741C43.565 44.9324 43.5558 44.9324 43.5466 44.9326C43.5358 44.9324 43.525 44.9324 43.5141 44.9324C42.3811 44.9324 41.4626 45.8522 41.462 46.9871C41.4626 48.1244 42.3811 49.0442 43.5141 49.0442C43.525 49.0442 43.5358 49.0441 43.5466 49.044C43.5558 49.0441 43.565 49.0442 43.5741 49.0442H51.3123C52.6723 49.0442 53.7749 50.1488 53.7749 51.5113C53.7749 52.8739 52.6723 53.9784 51.3123 53.9784H46.0375C46.0282 53.9784 46.0189 53.9785 46.0096 53.9787C45.9987 53.9785 45.9877 53.9784 45.9767 53.9784C44.8437 53.9784 43.9252 54.8983 43.9246 56.0332C43.9252 57.1704 44.8437 58.0903 45.9767 58.0903C45.9877 58.0903 45.9987 58.0902 46.0096 58.09C46.0189 58.0902 46.0282 58.0903 46.0375 58.0903H48.8497Z" fill="#FFE400"/>
<path fill-rule="evenodd" clip-rule="evenodd" d="M43.9228 27.6639C43.9228 31.2975 40.9819 34.2438 37.3569 34.2438C33.73 34.2438 30.7891 31.2975 30.7891 27.6639C30.7891 24.0323 33.73 21.0859 37.3569 21.0859C40.9819 21.0859 43.9228 24.0323 43.9228 27.6639Z" fill="#40BDFF"/>
<path fill-rule="evenodd" clip-rule="evenodd" d="M55.4149 23.1418C55.4149 28.366 51.1886 32.5981 45.976 32.5981C40.7615 32.5981 36.5352 28.366 36.5352 23.1418C36.5352 17.9177 40.7615 13.6836 45.976 13.6836C51.1886 13.6836 55.4149 17.9177 55.4149 23.1418Z" fill="#FF5E86"/>
<path fill-rule="evenodd" clip-rule="evenodd" d="M60.3398 29.3074C60.3398 32.4862 57.7673 35.0639 54.5948 35.0639C51.4223 35.0639 48.8477 32.4862 48.8477 29.3074C48.8477 26.1265 51.4223 23.5508 54.5948 23.5508C57.7673 23.5508 60.3398 26.1265 60.3398 29.3074Z" fill="#FF92BB"/>
</g>
</svg>
