<svg width="240" height="80" viewBox="0 0 240 80" fill="none" xmlns="http://www.w3.org/2000/svg">
<mask id="mask0_167_2789" style="mask-type:luminance" maskUnits="userSpaceOnUse" x="34" y="15" width="172" height="50">
<path d="M205.999 15.4287H34V64.5713H205.999V15.4287Z" fill="white"/>
</mask>
<g mask="url(#mask0_167_2789)">
<path fill-rule="evenodd" clip-rule="evenodd" d="M101.059 16.9828C99.8199 16.6163 97.9805 16.2905 95.422 16.2905C93.143 16.2905 91.064 16.4941 89.065 17.1864C86.5462 18.0416 84.9071 19.9149 84.5872 22.4397H90.8241C91.224 21.5438 91.7437 21.0958 92.5034 20.8108C93.183 20.5257 93.9826 20.4035 95.0621 20.4035C96.2616 20.4035 97.221 20.5257 97.9805 20.8515C99.02 21.2587 99.3799 21.9917 99.3799 22.6433C99.3799 23.4171 99.02 23.9872 98.1804 24.2722C97.4611 24.4758 96.781 24.4758 95.6218 24.4758H90.9041V28.8739H95.9817C97.6609 28.8739 98.2207 28.9147 98.7401 29.1183C99.3799 29.3219 99.8596 29.8513 99.8596 30.6657C99.8596 31.4394 99.4997 32.1318 98.6203 32.4576C98.5806 32.4721 98.5403 32.4869 98.4994 32.5022C97.9673 32.7003 97.307 32.9462 95.3022 32.9462C93.8227 32.9462 92.8232 32.7019 92.2235 32.4168C91.6238 32.1318 91.0241 31.5616 90.8241 30.7472H84.4272C84.7471 33.557 86.3863 35.2674 88.7052 36.1226C90.2644 36.6927 92.5833 36.937 95.2619 36.937C98.5806 36.937 100.26 36.6113 101.619 36.204C104.337 35.3896 105.937 33.3942 105.937 30.8693C105.937 28.6703 104.537 26.9192 102.099 26.3084C104.098 25.4532 105.417 23.9872 105.417 21.7474C105.417 19.5891 103.898 17.7973 101.059 16.9828ZM41.5717 24.0686V21.4623H55.7249V16.9828H35.7746V36.3669H49.288C51.1671 36.3669 52.5664 36.204 53.6059 35.7968C55.8048 34.9416 57.2842 32.8648 57.2842 30.1363C57.2842 27.3672 55.8848 25.4532 53.6859 24.598C52.6464 24.1908 51.287 24.0686 49.8078 24.0686H41.5717ZM41.5717 31.4802V28.3852H49.4879C50.1276 28.3852 50.6474 28.4259 51.0472 28.6295C51.5269 28.8739 51.7668 29.3219 51.7668 29.892C51.7668 30.4621 51.487 31.073 50.8073 31.3173C50.4874 31.4394 50.0477 31.4802 49.4879 31.4802H41.5717ZM66.4035 28.2631V16.9828H60.6063V36.3669H65.7238L75.719 25.0866V36.3669H81.5162V16.9828H76.3986L66.4035 28.2631ZM124.563 29.159V36.3669H130.36V16.9828H124.563V24.0686H115.247V16.9828H109.45V36.3669H115.247V29.159H124.563ZM134.75 16.9828H154.101V21.4216H140.547V24.6387H153.301V28.5074H140.547V31.9281H154.101V36.3669H134.75V16.9828ZM180.222 24.6794C179.382 19.8741 175.184 16.4534 168.547 16.4534C160.951 16.372 156.273 20.8515 156.273 26.7156C156.273 32.4982 160.951 36.9778 168.547 36.9778C175.264 36.937 179.302 33.557 180.181 28.711H174.065C173.465 30.91 171.346 32.4168 168.387 32.4168C164.669 32.4168 162.39 29.892 162.39 26.7156C162.39 23.5392 164.669 21.0551 168.387 21.0551C171.346 21.0551 173.425 22.5211 174.024 24.6794H180.222ZM46.8092 43.8857C53.446 43.8857 57.644 47.3064 58.4836 52.1117H52.2866C51.6868 49.9534 49.6079 48.4874 46.6493 48.4874C42.9311 48.4874 40.6522 50.9715 40.6522 54.1479C40.6522 57.3242 42.9311 59.8491 46.6493 59.8491C49.6079 59.8491 51.7268 58.3423 52.3265 56.1433H58.4436C57.564 60.9893 53.526 64.3693 46.8092 64.41C39.2129 64.41 34.5352 59.9305 34.5352 54.1479C34.5352 48.2838 39.2129 43.8042 46.8092 43.8857ZM80.8159 44.4151H61.4652V63.7992H80.8159V59.3604H67.2624V55.9397H80.0163V52.071H67.2624V48.8539H80.8159V44.4151ZM98.9309 63.7992L92.0145 56.469H90.4153V63.7992H84.6181V44.4151H90.4153V51.7045H92.0145L99.0109 44.4151H106.288L97.0121 53.6999L106.647 63.7992H98.9309ZM108.942 44.4151V63.7992H114.74V58.5867H120.856C122.296 58.5867 123.695 58.5459 125.054 58.098C127.693 57.2428 129.652 54.8401 129.652 51.5823C129.652 48.3245 127.733 45.9626 125.134 45.026C123.695 44.4966 122.336 44.4151 120.856 44.4151H108.942ZM114.74 49.0982H120.017C121.136 49.0982 121.776 49.2204 122.296 49.424C123.215 49.7905 123.655 50.6457 123.655 51.5416C123.655 52.5189 123.136 53.4555 122.136 53.7813C121.656 53.9443 121.097 54.0257 120.017 54.0257H114.74V49.0982ZM132.447 44.4151H151.797V48.8539H138.244V52.071H150.997V55.9397H138.244V59.3604H151.797V63.7992H132.447V44.4151ZM167.843 63.7992V49.5869H176.079V44.4151H153.609V49.5869H161.845V63.7992H167.843ZM192.992 63.3512C191.873 63.677 190.673 63.7992 189.354 63.7992H178.079V44.4151H183.876V49.6276H189.354C190.793 49.6276 192.312 49.6684 193.592 50.157C196.271 51.1751 197.95 53.4149 197.95 56.632C197.95 60.0119 195.991 62.496 192.992 63.3512ZM199.669 44.4151H205.466V63.7992H199.669V44.4151ZM190.593 54.4329C189.914 54.1886 189.154 54.1886 188.354 54.1886H183.876V59.1161H188.354C189.354 59.1161 189.994 59.1161 190.633 58.831C191.552 58.4238 192.112 57.5686 192.112 56.5505C192.112 55.5732 191.552 54.7587 190.593 54.4329ZM193.428 24.7167H183.799V28.9298H193.428V24.7167Z" fill="white"/>
</g>
</svg>
