<svg width="256" height="32" viewBox="0 0 256 32" fill="none" xmlns="http://www.w3.org/2000/svg">
<path d="M234.582 32H21.4155C12.5473 32 5.33203 24.8222 5.33203 16C5.33203 7.17781 12.5473 0 21.4155 0H234.582C243.45 0 250.665 7.17781 250.665 16C250.665 24.8222 243.45 32 234.582 32ZM21.4155 1.47755C13.3643 1.47755 6.81457 7.99328 6.81457 16.0027C6.81457 24.0122 13.3643 30.5278 21.4155 30.5278H234.582C242.633 30.5278 249.183 24.0122 249.183 16.0027C249.183 7.99328 242.633 1.47755 234.582 1.47755H21.4155Z" fill="white"/>
<path d="M21.7406 18.0048C21.7732 19.2967 22.9391 20.1067 25.0034 20.1067C26.6996 20.1067 27.7169 19.5442 27.7169 18.5996C27.7169 17.4746 26.2695 17.2431 24.5894 17.0279C22.1086 16.713 18.7647 16.3497 18.7647 13.5022L18.6485 12.4095L19.1814 12.0112V11.0019L20.1797 10.9024L20.3799 9.64557L21.5108 9.82861L22.0437 8.57175L23.391 9.13421L24.373 7.92578L25.5038 9.0669L26.8186 7.92578L27.3164 9.4813L29.1804 8.91885L28.8964 10.5256L30.7279 10.2107L29.9947 12.0812L31.7071 12.0139L30.5764 13.8521H27.5464C27.5626 12.5602 26.4643 11.8336 24.6841 11.8336C23.0203 11.8336 22.0382 12.4122 22.0382 13.3057C22.0382 14.447 23.6371 14.6461 25.4172 14.8614C27.8981 15.1762 30.993 15.3081 30.993 18.1232C30.993 20.4243 28.6475 22.2114 24.9032 22.2114C21.0751 22.2114 18.6457 20.5401 18.6133 18.0075H21.7406V18.0048Z" fill="white"/>
<path d="M43.7237 10.1089V12.3265H36.5355V14.9263H43.1907V16.8641H36.5355V19.6792H43.9239V21.8969H33.3242V10.1116H43.7237V10.1089Z" fill="white"/>
<path d="M44.7734 12.3938V10.1089H57.0369V12.3938H52.5433V21.8969H49.2644V12.3938H44.7734Z" fill="white"/>
<path d="M57.4883 12.3938V10.1089H69.7518V12.3938H65.2609V21.8969H61.9819V12.3938H57.4883Z" fill="white"/>
<path d="M81.5831 10.1089V12.3265H74.3949V14.9263H81.05V16.8641H74.3949V19.6792H81.7832V21.8969H71.1836V10.1116H81.5831V10.1089Z" fill="white"/>
<path d="M90.3521 10.1089C93.6476 10.1089 95.8279 11.6483 95.8279 13.9816C95.8279 15.9194 94.1809 17.3081 91.9352 17.5396L91.7676 17.5558L96.2932 21.8942H92.5331L88.4883 17.755H86.9084V21.8942H83.6133V10.1089H90.3521ZM89.9194 15.8198C91.4994 15.8198 92.5657 15.1255 92.5657 13.9978C92.5657 12.8702 91.4666 12.192 89.9194 12.192H86.9084V15.8172H89.9194V15.8198Z" fill="white"/>
<path d="M100.405 18.0223C100.421 19.3142 101.587 20.1243 103.648 20.1243C105.345 20.1243 106.362 19.5619 106.362 18.6171C106.362 17.4921 104.915 17.2606 103.234 17.0454C100.754 16.7466 97.4099 16.3833 97.4099 13.5358C97.4099 11.267 99.6392 9.79492 103.25 9.79492C106.894 9.79492 109.225 11.4179 109.225 13.883H106.197C106.213 12.6074 105.114 11.8808 103.335 11.8808C101.671 11.8808 100.688 12.4593 100.688 13.3368C100.688 14.4778 102.287 14.6769 104.067 14.8923C106.53 15.2072 109.641 15.6539 109.641 18.4503C109.641 20.7352 107.295 22.2074 103.551 22.2074C99.7226 22.2074 97.2929 20.536 97.2773 18.0197H100.405V18.0223Z" fill="white"/>
<path d="M120.406 18.8828H127.129V20.9014H126.631V19.8759H126.131V19.378H119.925V17.3084H119.428V19.8732H126.134V20.8986H126.634V21.3939H126.134V21.8917H116.516V11.1479H116.998V10.6527H117.496V11.1479H125.95V12.1733H126.447V12.6712H125.95V13.1663H120.41V14.5417H126.467V16.3126H125.966V15.5348H125.466V15.0396H119.925V13.1691H119.428V15.5375H125.468V16.3153H125.968V16.8132H125.468V17.3084H120.41V18.8828H120.406ZM125.947 11.1533V10.6581H117.493V10.1602H126.945V12.1787H126.445V11.1533H125.947Z" fill="white"/>
<path d="M134.241 10.1089C139.115 10.1089 142.361 12.4583 142.361 16.0029C142.361 19.5446 139.117 21.8969 134.241 21.8969H128.965V10.1116H134.241V10.1089ZM134.241 19.7438C137.134 19.7438 139.098 18.304 139.098 16.0029C139.098 13.718 137.134 12.262 134.241 12.262H132.16V19.7438H134.241Z" fill="white"/>
<path d="M144.105 10.1089H147.401V17.1117C147.401 18.783 148.648 19.9268 150.432 19.9268C152.212 19.9268 153.442 18.7669 153.442 17.1117V10.1089H156.721V17.1763C156.721 20.2067 154.125 22.2092 150.432 22.2092C146.703 22.2092 144.11 20.2067 144.11 17.1763V10.1089H144.105Z" fill="white"/>
<path d="M158.465 16.0038C158.465 12.3463 161.608 9.79492 165.986 9.79492C169.497 9.79492 172.407 11.6493 172.941 14.2975L169.878 14.5962C169.478 13.1402 167.882 12.096 166.034 12.096C163.505 12.096 161.741 13.6867 161.741 16.0038C161.741 18.3211 163.521 19.9278 166.034 19.9278C167.83 19.9278 169.445 18.9024 169.878 17.4787L172.974 17.8259C172.473 20.4069 169.561 22.2127 165.986 22.2127C161.61 22.2101 158.465 19.6614 158.465 16.0038Z" fill="white"/>
<path d="M188.186 21.8942H184.859L183.993 19.7923H178.12L177.254 21.8942H173.926L178.668 10.1089H183.412L188.186 21.8942ZM183.279 17.7737L181.133 12.4611H180.933L178.837 17.7737H183.279Z" fill="white"/>
<path d="M188.703 12.3938V10.1089H200.968V12.3938H196.474V21.8969H193.195V12.3938H188.703Z" fill="white"/>
<path d="M205.681 10.1089V21.8942H202.402V10.1089H205.681Z" fill="white"/>
<path d="M207.512 16.0038C207.512 12.279 210.69 9.79492 215.299 9.79492C219.91 9.79492 223.105 12.279 223.105 16.0038C223.105 19.7448 219.91 22.2127 215.299 22.2127C210.69 22.2101 207.512 19.7448 207.512 16.0038ZM219.81 16.0038C219.81 13.6867 217.962 12.096 215.299 12.096C212.654 12.096 210.79 13.6867 210.79 16.0038C210.79 18.3211 212.654 19.9278 215.299 19.9278C217.962 19.9252 219.81 18.3211 219.81 16.0038Z" fill="white"/>
<path d="M228.727 10.1089L234.067 18.3363H234.267V10.1089H237.395V21.8942H233.586L228.246 13.6829H228.045V21.8942H224.934V10.1089H228.727Z" fill="white"/>
</svg>
