<svg width="98" height="98" viewBox="0 0 98 98" fill="none" xmlns="http://www.w3.org/2000/svg">
<g clip-path="url(#clip0_269_70)">
<path d="M76.7319 70.1013C63.8824 65.4203 59.7746 61.4689 59.7746 53.0086C59.7746 47.9314 63.9849 44.6409 65.4201 40.2895C66.8554 35.9381 67.6856 30.7862 68.3757 27.0386C69.0657 23.291 69.3401 21.8415 69.7153 17.8485C70.1742 12.8651 66.8381 0 49 0C31.1672 0 27.8205 12.8651 28.2897 17.8485C28.665 21.8415 28.9407 23.2912 29.6293 27.0386C30.318 30.7861 31.1402 35.9377 32.5745 40.2895C34.0087 44.6412 38.225 47.9314 38.225 53.0086C38.225 61.4689 34.1173 65.4202 21.2679 70.1013C8.37173 74.7928 0 79.4191 0 82.6875V98H98V82.6875C98 79.4243 89.6231 74.798 76.7319 70.1013Z" fill="white"/>
</g>
<defs>
<clipPath id="clip0_269_70">
<rect width="98" height="98" fill="white"/>
</clipPath>
</defs>
</svg>
