<svg width="40" height="40" viewBox="0 0 40 40" fill="none" xmlns="http://www.w3.org/2000/svg">
<path d="M19.375 27.3438C19.5639 27.4518 19.7777 27.5086 19.9953 27.5086C20.2129 27.5086 20.4267 27.4518 20.6156 27.3438C20.9984 27.1235 29.9906 21.875 29.9906 12.5078C29.9121 9.90987 28.8251 7.44456 26.96 5.6343C25.0949 3.82404 22.5983 2.81108 19.9991 2.81006C17.3999 2.80904 14.9025 3.82005 13.036 5.62885C11.1695 7.43766 10.0806 9.90212 10 12.5C10 21.875 18.9969 27.1157 19.375 27.3438ZM20 8.75003C20.7417 8.75003 21.4667 8.96996 22.0834 9.38202C22.7001 9.79407 23.1807 10.3797 23.4645 11.065C23.7484 11.7502 23.8226 12.5042 23.6779 13.2316C23.5333 13.959 23.1761 14.6272 22.6517 15.1517C22.1272 15.6761 21.459 16.0333 20.7316 16.178C20.0042 16.3227 19.2502 16.2484 18.5649 15.9646C17.8797 15.6807 17.294 15.2001 16.882 14.5834C16.4699 13.9667 16.25 13.2417 16.25 12.5C16.25 11.5055 16.6451 10.5516 17.3483 9.84838C18.0516 9.14512 19.0054 8.75003 20 8.75003ZM37.5 28.75C37.5 33.6219 28.4828 36.25 20 36.25C11.5172 36.25 2.5 33.6219 2.5 28.75C2.5 26.4703 4.56562 24.4516 8.31719 23.0672C8.62484 22.9656 8.95994 22.9874 9.25184 23.128C9.54374 23.2686 9.76963 23.5171 9.88188 23.821C9.99414 24.125 9.98399 24.4606 9.85358 24.7572C9.72316 25.0539 9.48267 25.2882 9.18281 25.411C6.60313 26.3657 5 27.6438 5 28.75C5 30.8375 10.7063 33.75 20 33.75C29.2937 33.75 35 30.8375 35 28.75C35 27.6438 33.3969 26.3657 30.8172 25.4125C30.5173 25.2898 30.2768 25.0554 30.1464 24.7588C30.016 24.4622 30.0059 24.1265 30.1181 23.8226C30.2304 23.5187 30.4563 23.2702 30.7482 23.1296C31.0401 22.9889 31.3752 22.9671 31.6828 23.0688C35.4344 24.4516 37.5 26.4703 37.5 28.75Z" fill="white"/>
</svg>
