<svg width="28" height="28" viewBox="0 0 28 28" fill="none" xmlns="http://www.w3.org/2000/svg">
<path d="M13.5625 19.1396C13.6947 19.2152 13.8444 19.255 13.9967 19.255C14.149 19.255 14.2987 19.2152 14.4309 19.1396C14.6989 18.9854 20.9934 15.3115 20.9934 8.75447C20.9385 6.93589 20.1776 5.21017 18.872 3.94298C17.5664 2.6758 15.8188 1.96673 13.9994 1.96602C12.18 1.96531 10.4318 2.67301 9.1252 3.93918C7.81865 5.20534 7.05641 6.93046 7 8.749C7 15.3115 13.2978 18.9799 13.5625 19.1396ZM14 6.124C14.5192 6.124 15.0267 6.27795 15.4584 6.56639C15.8901 6.85483 16.2265 7.2648 16.4252 7.74445C16.6239 8.22411 16.6758 8.75191 16.5746 9.26111C16.4733 9.77031 16.2233 10.238 15.8562 10.6052C15.489 10.9723 15.0213 11.2223 14.5121 11.3236C14.0029 11.4248 13.4751 11.3729 12.9955 11.1742C12.5158 10.9755 12.1058 10.639 11.8174 10.2074C11.529 9.77569 11.375 9.26817 11.375 8.749C11.375 8.0528 11.6516 7.38512 12.1438 6.89284C12.6361 6.40056 13.3038 6.124 14 6.124ZM26.25 20.124C26.25 23.5343 19.938 25.374 14 25.374C8.06203 25.374 1.75 23.5343 1.75 20.124C1.75 18.5282 3.19594 17.1151 5.82203 16.146C6.03739 16.0749 6.27196 16.0901 6.47629 16.1886C6.68062 16.287 6.83874 16.461 6.91732 16.6737C6.9959 16.8865 6.98879 17.1214 6.8975 17.329C6.80621 17.5367 6.63787 17.7007 6.42797 17.7867C4.62219 18.4549 3.5 19.3496 3.5 20.124C3.5 21.5852 7.49438 23.624 14 23.624C20.5056 23.624 24.5 21.5852 24.5 20.124C24.5 19.3496 23.3778 18.4549 21.572 17.7877C21.3621 17.7018 21.1938 17.5378 21.1025 17.3301C21.0112 17.1225 21.0041 16.8876 21.0827 16.6748C21.1613 16.462 21.3194 16.2881 21.5237 16.1897C21.728 16.0912 21.9626 16.076 22.178 16.1471C24.8041 17.1151 26.25 18.5282 26.25 20.124Z" fill="white"/>
</svg>
