<svg width="46" height="46" viewBox="0 0 46 46" fill="none" xmlns="http://www.w3.org/2000/svg">
<path fill-rule="evenodd" clip-rule="evenodd" d="M38.7582 5.81518C38.7582 6.18532 38.905 6.54043 39.1673 6.80263C39.4281 7.06338 39.7833 7.21172 40.1535 7.21172H44.6916C45.3944 7.21172 45.964 7.78107 45.964 8.48382V34.2351C45.964 34.9378 45.3944 35.5072 44.6916 35.5072H40.5551C39.8522 35.5072 39.2827 34.9378 39.2827 34.2351V8.08526C39.2827 7.71516 39.1359 7.36005 38.8736 7.09781C38.6143 6.8326 38.2576 6.68126 37.8859 6.67825H33.3493C32.6464 6.67825 32.0769 6.1089 32.0769 5.40615V1.27659C32.0769 0.573842 32.6464 0.00445557 33.3493 0.00445557H37.4857C38.1887 0.00445557 38.7582 0.573842 38.7582 1.27659V5.81518ZM43.7399 12.2522C43.7834 12.2507 43.8238 12.2343 43.8553 12.2043H43.8583C43.8868 12.1728 43.9033 12.1323 43.9033 12.0889V8.99624C43.9033 8.90333 43.9797 8.82691 44.0726 8.82691H44.5882C44.6811 8.82691 44.7575 8.90333 44.7575 8.99624V12.032C44.7575 12.1249 44.6811 12.2013 44.5882 12.2013H44.0142C43.9707 12.2028 43.9302 12.2193 43.8988 12.2493C43.8688 12.2807 43.8508 12.3212 43.8508 12.3646V12.9385C43.8508 13.0314 43.7744 13.1078 43.6815 13.1078H43.1659C43.073 13.1078 42.9965 13.0314 42.9965 12.9385V12.3646C42.995 12.3212 42.9785 12.2807 42.9486 12.2493C42.9171 12.2193 42.8767 12.2013 42.8332 12.2013H42.2007C42.1573 12.2028 42.1168 12.2193 42.0853 12.2493C42.0554 12.2807 42.0374 12.3212 42.0374 12.3646V12.9385C42.0374 13.0314 41.9609 13.1078 41.868 13.1078H41.3525C41.2596 13.1078 41.1831 13.0314 41.1831 12.9385V12.3646C41.1816 12.3212 41.1651 12.2807 41.1351 12.2493C41.1037 12.2193 41.0632 12.2013 41.0198 12.2013H40.4457C40.3528 12.2013 40.2764 12.1249 40.2764 12.032V8.99624C40.2764 8.90333 40.3528 8.82691 40.4457 8.82691H40.9613C41.0542 8.82691 41.1307 8.90333 41.1307 8.99624V12.0889C41.1322 12.1323 41.1486 12.1728 41.1786 12.2043C41.2101 12.2343 41.2505 12.2522 41.294 12.2522H41.9265C41.9699 12.2507 42.0104 12.2343 42.0419 12.2043C42.0718 12.1728 42.0898 12.1323 42.0898 12.0889V8.99624C42.0898 8.90333 42.1663 8.82691 42.2592 8.82691H42.7747C42.8676 8.82691 42.9441 8.90333 42.9441 8.99624V12.0889C42.9456 12.1323 42.9621 12.1728 42.992 12.2043C43.0235 12.2343 43.064 12.2522 43.1074 12.2522H43.7399ZM42.9321 19.6153V20.2057L42.9336 20.2072C42.9321 20.2476 42.9486 20.2866 42.9771 20.3166L42.9891 20.3285C43.0176 20.357 43.0565 20.3735 43.0985 20.3735H43.6785C43.7639 20.3735 43.8328 20.4424 43.8328 20.5279V22.7304C43.8328 22.8159 43.7639 22.8848 43.6785 22.8848H43.094C43.0535 22.8833 43.0131 22.8998 42.9846 22.9297L42.9726 22.9417C42.9441 22.9702 42.9276 23.0092 42.9276 23.0511V23.6355C42.9276 23.7209 42.8587 23.7898 42.7733 23.7898H42.2442C42.1588 23.7898 42.0898 23.7209 42.0898 23.6355V23.0511C42.0913 23.0107 42.0748 22.9702 42.0449 22.9417L42.0329 22.9297C42.0044 22.9013 41.9654 22.8848 41.9235 22.8848H41.339C41.2536 22.8848 41.1846 22.8159 41.1846 22.7304V20.5203C41.1846 20.4349 41.2536 20.366 41.339 20.366H41.928C41.9684 20.3675 42.0089 20.351 42.0374 20.321L42.0494 20.3091C42.0778 20.2806 42.0943 20.2416 42.0943 20.1997V19.6153C42.0943 19.5299 42.1633 19.461 42.2487 19.461H42.7777C42.8632 19.461 42.9321 19.5299 42.9321 19.6153ZM42.9411 22.9117L42.9531 22.8998C42.9815 22.8713 42.9981 22.8324 42.9981 22.7904V20.4739C42.9996 20.4334 42.983 20.3929 42.9531 20.3645L42.9411 20.3525C42.9126 20.324 42.8737 20.3076 42.8317 20.3076H42.1933C42.1528 20.306 42.1123 20.3225 42.0839 20.3525L42.0718 20.3645C42.0434 20.3929 42.0269 20.4319 42.0269 20.4739V22.7904C42.0254 22.8309 42.0419 22.8713 42.0718 22.8998L42.0839 22.9117C42.1123 22.9402 42.1513 22.9567 42.1933 22.9567H42.8317C42.8722 22.9582 42.9126 22.9417 42.9411 22.9117ZM42.9216 15.772L42.9066 15.7869C42.8782 15.8154 42.8407 15.8304 42.8002 15.8304H42.2097C42.1273 15.8304 42.0599 15.763 42.0599 15.6805V14.302C42.0599 14.2196 41.9924 14.1522 41.91 14.1522H41.3705C41.288 14.1522 41.2206 14.2196 41.2206 14.302V18.2623C41.2206 18.3447 41.288 18.4121 41.3705 18.4121H41.91C41.9924 18.4121 42.0599 18.3447 42.0599 18.2623V16.8178C42.0599 16.7354 42.1273 16.668 42.2097 16.668H42.8017C42.8422 16.668 42.8797 16.6845 42.9081 16.7114L42.9231 16.7264C42.9516 16.7549 42.9666 16.7924 42.9666 16.8328V18.2623C42.9666 18.3447 43.034 18.4121 43.1164 18.4121H43.656C43.7399 18.4121 43.8059 18.3447 43.8059 18.2623V16.8838C43.8059 16.8013 43.7384 16.7339 43.656 16.7339H43.0625C43.022 16.7339 42.9845 16.7175 42.9561 16.6905L42.9411 16.6755C42.9126 16.647 42.8976 16.6096 42.8976 16.5691V15.9278C42.8976 15.8873 42.9141 15.8499 42.9411 15.8214L42.9561 15.8064C42.9845 15.778 43.022 15.763 43.0625 15.763H43.653C43.7369 15.763 43.8028 15.6955 43.8028 15.6131V14.3005C43.8028 14.2182 43.7354 14.1507 43.653 14.1507H43.1134C43.0295 14.1507 42.9636 14.2182 42.9636 14.3005V15.6656C42.9636 15.706 42.9501 15.7465 42.9216 15.775V15.772ZM42.9321 25.0125V25.5849V25.5864C42.9306 25.6298 42.9456 25.6718 42.974 25.7048C43.0055 25.7347 43.046 25.7527 43.0894 25.7527H43.662C43.7549 25.7527 43.8313 25.8291 43.8313 25.9221V29.0177C43.8313 29.1106 43.7549 29.187 43.662 29.187H43.1539C43.061 29.187 42.9845 29.1106 42.9845 29.0177V25.8621C42.983 25.8187 42.9666 25.7782 42.9366 25.7468C42.9051 25.7168 42.8646 25.6988 42.8212 25.6988H42.1902C42.1468 25.7003 42.1063 25.7168 42.0748 25.7468C42.0448 25.7782 42.0269 25.8187 42.0269 25.8621V29.0132C42.0269 29.1061 41.9504 29.1825 41.8575 29.1825H41.3495C41.2565 29.1825 41.1801 29.1061 41.1801 29.0132V25.9175C41.1801 25.8246 41.2565 25.7482 41.3495 25.7482H41.9219C41.9654 25.7468 42.0059 25.7303 42.0374 25.7003C42.0673 25.6688 42.0853 25.6284 42.0853 25.5849V25.0125C42.0853 24.9196 42.1617 24.8432 42.2547 24.8432H42.7627C42.8557 24.8432 42.9321 24.9196 42.9321 25.0125ZM42.9876 31.09L42.9785 31.081C42.9486 31.051 42.9321 31.0106 42.9336 30.9686V30.3903C42.9336 30.3034 42.8631 30.2329 42.7762 30.2329H42.2532C42.1663 30.2329 42.0958 30.3034 42.0958 30.3903V30.9686C42.0958 31.0106 42.0793 31.051 42.0508 31.081L42.0419 31.09C42.0119 31.12 41.9714 31.1365 41.9295 31.135H41.3375C41.2505 31.135 41.1801 31.2054 41.1801 31.2923V34.4014C41.1801 34.4883 41.2505 34.5588 41.3375 34.5588H41.8605C41.9475 34.5588 42.0179 34.4883 42.0179 34.4014V32.8116V32.0085L42.0389 32.0295C42.0688 32.0595 42.0853 32.0999 42.0838 32.1419V32.7217C42.0838 32.8086 42.1542 32.8791 42.2412 32.8791H42.7643C42.8512 32.8791 42.9216 32.8086 42.9216 32.7217V32.1449C42.9216 32.1029 42.9381 32.0624 42.9666 32.0325L42.9876 32.0115V34.4014C42.9876 34.4883 43.058 34.5588 43.1449 34.5588H43.6679C43.7549 34.5588 43.8253 34.4883 43.8253 34.4014V31.2878C43.8253 31.2009 43.7549 31.1304 43.6679 31.1304H43.0879C43.0505 31.1289 43.016 31.114 42.9876 31.0885V31.09ZM42.9516 31.989C42.9216 32.019 42.8811 32.0355 42.8392 32.034H42.2007C42.1587 32.034 42.1183 32.0175 42.0883 31.989L42.0778 31.9785C42.0478 31.9486 42.0313 31.9081 42.0329 31.8661V31.2383C42.0329 31.1964 42.0493 31.1559 42.0778 31.1259L42.0883 31.1155C42.1183 31.0855 42.1587 31.069 42.2007 31.0705H42.8347C42.8767 31.0705 42.9171 31.087 42.9471 31.1155L42.9575 31.1259C42.9876 31.1559 43.004 31.1964 43.0025 31.2383V31.8751C43.0025 31.9186 42.983 31.959 42.9501 31.989H42.9516Z" fill="black"/>
<path d="M8.09295 21.5108C8.35524 21.2501 8.70894 21.1048 9.07763 21.1048H20.303C21.0029 21.1048 21.5709 20.5369 21.5709 19.8372V15.2865C21.5709 14.9194 21.7178 14.5673 21.9771 14.3081C22.2393 14.0474 22.593 13.902 22.9617 13.902H27.5058C28.2057 13.902 28.7737 13.3341 28.7737 12.6344V8.47639C28.7737 7.77664 28.2057 7.20875 27.5058 7.20875H22.9722C22.2019 7.20875 21.5754 6.58392 21.5754 5.81226V1.26764C21.5754 0.56789 21.0074 0 20.3075 0H2.29147C1.57958 0 1.00407 0.576876 1.00407 1.28711V5.3912C1.00407 6.10292 1.58107 6.67829 2.29147 6.67829H20.7031C21.475 6.67829 22.1015 7.30316 22.103 8.07632V13.015C22.103 13.3851 21.9561 13.7387 21.6938 13.9994C21.4315 14.2601 21.0778 14.4055 20.7092 14.4055H9.47928C8.7794 14.4055 8.21137 14.9734 8.21137 15.6731V20.2207C8.21137 20.5893 8.06599 20.9415 7.8052 21.2022C7.54446 21.4629 7.19226 21.6082 6.82358 21.6082H2.27048C1.57058 21.6082 1.00256 22.1761 1.00256 22.8759V27.0219C1.00256 27.7217 1.57058 28.2895 2.27048 28.2895H6.81757C7.18625 28.2895 7.53845 28.4349 7.79924 28.6956C8.06002 28.9563 8.20536 29.3085 8.20536 29.6771V34.2232C8.20536 34.9229 8.77339 35.4908 9.47327 35.4908H27.4968C28.2087 35.4908 28.7842 34.9139 28.7842 34.2037V30.1146C28.7842 29.4028 28.2072 28.8275 27.4968 28.8275H9.08364C8.71496 28.8275 8.36126 28.6821 8.09897 28.4214C7.83968 28.1622 7.6928 27.8101 7.6928 27.443V22.4908C7.68984 22.1237 7.83522 21.7701 8.09446 21.5093L8.09295 21.5108Z" fill="black"/>
<path d="M40.8054 41.2401L41.7271 40.5613H38.6412V44.6414H41.7271V43.9612H39.5225V42.9168H41.4033V42.238H39.5225V41.2401H40.8054Z" fill="black"/>
<path d="M36.3138 42.1511H35.2422V41.2401H36.9523L37.8739 40.5613H34.361V44.6414H36.1999C37.231 44.6414 37.823 44.1739 37.823 43.3603C37.823 42.5467 37.2865 42.1526 36.3138 42.1526V42.1511ZM36.1609 43.9612H35.2422V42.8299H36.1609C36.7199 42.8299 36.9807 43.0187 36.9807 43.3948C36.9807 43.7709 36.705 43.9597 36.1609 43.9597V43.9612Z" fill="black"/>
<path d="M44.2269 40.5613H42.5469V44.6414H43.4266V43.4862H44.2254C45.297 43.4862 45.9641 42.9228 45.9641 42.0223C45.9641 41.1217 45.2985 40.5628 44.2254 40.5628L44.2269 40.5613ZM44.2074 42.8059H43.4266V41.2401H44.2074C44.771 41.2401 45.0827 41.5188 45.0827 42.0223C45.0827 42.5257 44.7725 42.8044 44.2074 42.8044V42.8059Z" fill="black"/>
<path d="M32.8502 43.7573C32.6239 43.8817 32.3616 43.9476 32.0903 43.9476C31.296 43.9476 30.7205 43.3812 30.7205 42.6006C30.7205 41.8199 31.296 41.2535 32.0903 41.2535C32.3901 41.2535 32.6598 41.3374 32.8907 41.5037L33.5216 41.0377L33.4796 41.0018C33.111 40.6781 32.6179 40.5073 32.0544 40.5073C31.4429 40.5073 30.8884 40.7126 30.4927 41.0872C30.094 41.4633 29.8752 41.9922 29.8752 42.5781C29.8752 43.1639 30.094 43.7034 30.4912 44.0915C30.8899 44.481 31.4429 44.6953 32.0499 44.6953C32.6569 44.6953 33.2383 44.4735 33.6145 44.072C33.3253 43.8577 33.045 43.6524 33.045 43.6524L32.8502 43.7588V43.7573Z" fill="black"/>
<path d="M27.8369 42.6C27.8369 42.3933 27.8189 42.1894 27.7829 41.9932L27.053 42.5311C27.053 42.5536 27.053 42.5775 27.053 42.6C27.053 44.037 25.884 45.2072 24.4452 45.2072C23.0065 45.2072 21.8375 44.0385 21.8375 42.6C21.8375 41.1616 23.0065 39.9928 24.4452 39.9928C24.9908 39.9928 25.4959 40.1607 25.9155 40.4483L26.5749 39.9629C25.9934 39.4924 25.2516 39.2107 24.4452 39.2107C22.5734 39.2107 21.0552 40.7286 21.0552 42.6C21.0552 44.4715 22.5734 45.9892 24.4452 45.9892C26.3172 45.9892 27.8353 44.4715 27.8353 42.6H27.8369Z" fill="black"/>
<path d="M27.1295 40.5287C27.2898 40.7355 27.4262 40.9617 27.5356 41.203L24.4467 43.479L23.1564 42.6699V41.6959L24.4467 42.5051L27.1295 40.5287Z" fill="black"/>
</svg>
