<svg width="1440" height="900" viewBox="0 0 1440 900" fill="none" xmlns="http://www.w3.org/2000/svg">
<g style="mix-blend-mode:difference" clip-path="url(#clip0_176_3677)">
<rect x="51.1133" y="630.254" width="3.97525" height="3.97525" transform="rotate(98.4183 51.1133 630.254)" fill="white"/>
<rect x="188.258" y="809.141" width="3.97525" height="3.97525" transform="rotate(98.4183 188.258 809.141)" fill="white"/>
<rect x="305.527" y="584.539" width="5.96287" height="5.96287" transform="rotate(98.4183 305.527 584.539)" fill="white"/>
<rect x="1247.93" y="368.178" width="5.96287" height="5.96287" transform="rotate(98.4183 1247.93 368.178)" fill="white"/>
<rect x="132.605" y="870.755" width="3.97525" height="3.97525" transform="rotate(98.4183 132.605 870.755)" fill="white"/>
<rect x="1416.61" y="749.512" width="3.97525" height="3.97525" transform="rotate(98.4183 1416.61 749.512)" fill="white"/>
<rect x="472.484" y="106.301" width="5.96287" height="5.96287" transform="rotate(-171.582 472.484 106.301)" fill="white"/>
<rect x="120.676" y="289.162" width="3.97525" height="3.97525" transform="rotate(-171.582 120.676 289.162)" fill="white"/>
<rect x="1211.88" y="849.672" width="3.97525" height="3.97525" transform="rotate(-171.582 1211.88 849.672)" fill="white"/>
<rect x="1053.8" y="135.346" width="3.97525" height="3.97525" transform="rotate(-126.582 1053.8 135.346)" fill="white"/>
<rect x="760.059" y="18.6913" width="3.97525" height="3.97525" transform="rotate(-126.582 760.059 18.6913)" fill="white"/>
<rect x="1428.24" y="199.988" width="5.96287" height="5.96287" transform="rotate(-171.582 1428.24 199.988)" fill="white"/>
<rect width="5.96287" height="5.96287" transform="matrix(-0.543037 -0.839708 -0.839708 0.543037 1306.38 153.374)" fill="white"/>
<rect width="5.96287" height="5.96287" transform="matrix(-0.543037 -0.839708 -0.839708 0.543037 20.7988 404.378)" fill="white"/>
<rect x="495.436" y="209.818" width="5.96287" height="5.96287" transform="rotate(-126.582 495.436 209.818)" fill="white"/>
<rect width="3.97525" height="3.97525" transform="matrix(-0.543037 -0.839708 -0.839708 0.543037 102.275 94.6375)" fill="white"/>
<rect width="3.97525" height="3.97525" transform="matrix(-0.543037 -0.839708 -0.839708 0.543037 158.584 866.098)" fill="white"/>
<rect width="3.97525" height="3.97525" transform="matrix(-0.543037 -0.839708 -0.839708 0.543037 1341.9 711.874)" fill="white"/>
</g>
<defs>
<clipPath id="clip0_176_3677">
<rect width="1440" height="900" fill="white"/>
</clipPath>
</defs>
</svg>
