<svg width="98" height="98" viewBox="0 0 98 98" fill="none" xmlns="http://www.w3.org/2000/svg">
<path d="M49 0C14.7 0 31.2375 44.7125 31.2375 44.7125C34.9125 50.8375 39.8125 49.6125 39.8125 53.9C39.8125 57.575 35.525 58.8 31.2375 59.4125C24.5 59.4125 18.375 58.1875 12.25 69.2125C8.57505 75.95 6.73755 98 6.73755 98H90.65C90.65 98 88.8125 75.95 85.75 69.2125C79.625 57.575 73.5 59.4125 66.7625 58.8C62.475 58.1875 58.1875 56.9625 58.1875 53.2875C58.1875 49.6125 63.0875 50.8375 66.7625 44.1C66.7625 44.7125 83.3 0 49 0Z" fill="white"/>
</svg>
